<svg xmlns="http://www.w3.org/2000/svg" xmlns:xlink="http://www.w3.org/1999/xlink" width="425" height="137" viewBox="0 0 425 137"><defs><style>.a{fill:#fff;stroke:#707070;}.b{fill:url(#a);}.c{clip-path:url(#b);}.d{fill:none;}.e,.f{stroke:none;}.f{fill:#f68f6a;}</style><linearGradient id="a" x1="0.192" y1="-0.074" x2="0.82" y2="0.749" gradientUnits="objectBoundingBox"><stop offset="0" stop-color="#f37955"/><stop offset="1" stop-color="#ea351c"/></linearGradient><clipPath id="b"><rect class="a" width="425" height="137" transform="translate(748 3266)"/></clipPath></defs><g transform="translate(-748 -3266)"><g transform="translate(928 3342.333)"><path class="b" d="M434.669,633.336a18.208,18.208,0,0,1-1.179,6.812,13.987,13.987,0,0,1-3.227,4.919,13.292,13.292,0,0,1-4.873,2.982,18.077,18.077,0,0,1-6.075,1,17.609,17.609,0,0,1-5.964-1,13.753,13.753,0,0,1-4.9-2.982,13.911,13.911,0,0,1-3.294-4.919,17.9,17.9,0,0,1-1.2-6.812,17.327,17.327,0,0,1,1.246-6.812,14.488,14.488,0,0,1,3.36-4.94,13.87,13.87,0,0,1,4.9-3,17.151,17.151,0,0,1,5.853-1,17.607,17.607,0,0,1,5.964,1,13.62,13.62,0,0,1,4.9,3,14.149,14.149,0,0,1,3.293,4.94A17.9,17.9,0,0,1,434.669,633.336Zm-23.544,0a13.412,13.412,0,0,0,.556,4,9.057,9.057,0,0,0,1.6,3.069,7.057,7.057,0,0,0,2.559,1.981,8.946,8.946,0,0,0,6.921,0,7.016,7.016,0,0,0,2.581-1.981,9.084,9.084,0,0,0,1.6-3.069,13.436,13.436,0,0,0,.556-4,13.655,13.655,0,0,0-.556-4.026,9.072,9.072,0,0,0-1.6-3.091,7.029,7.029,0,0,0-2.581-1.981,8.266,8.266,0,0,0-3.449-.7,8,8,0,0,0-3.471.718,7.289,7.289,0,0,0-2.559,2,9.047,9.047,0,0,0-1.6,3.091A13.473,13.473,0,0,0,411.124,633.336Zm55.786-6.811a14.132,14.132,0,0,0-3.293-4.94,13.639,13.639,0,0,0-4.9-3.005,17.6,17.6,0,0,0-5.965-1,17.141,17.141,0,0,0-5.852,1,13.878,13.878,0,0,0-4.9,3.005,14.473,14.473,0,0,0-3.359,4.94,17.306,17.306,0,0,0-1.248,6.811v18.947c0,1.468,2.11,2.42,1.15,2.827a2.1,2.1,0,0,0-1.15,2.011V664.9h0a.561.561,0,0,0,0,.059.506.506,0,0,0,1.012,0,.545.545,0,0,0,0-.059h0v-5.4a1.008,1.008,0,0,1,1.032-.978h.029a1.01,1.01,0,0,1,1.032.978v5.4h0a.443.443,0,0,0,0,.059.5.5,0,0,0,1.009,0,.443.443,0,0,0,0-.059h0v-5.4a1,1,0,0,1,1.011-.978h.027a1,1,0,0,1,1.009.978v5.4h.009a.559.559,0,0,0,0,.059.506.506,0,0,0,1.011,0,.454.454,0,0,0,0-.059h0v-7.778a2.1,2.1,0,0,0-1.15-2.011c-.96-.407,1.15-1.359,1.15-2.827v-5.24a14.118,14.118,0,0,0,2.214,1.007,17.651,17.651,0,0,0,5.963,1,18.122,18.122,0,0,0,6.076-1,13.286,13.286,0,0,0,4.874-2.983,14.01,14.01,0,0,0,3.226-4.918,18.184,18.184,0,0,0,1.18-6.813A17.9,17.9,0,0,0,466.91,626.525Zm-6.521,10.816a9.068,9.068,0,0,1-1.6,3.068,7.018,7.018,0,0,1-2.581,1.981,8.93,8.93,0,0,1-6.921,0,7.036,7.036,0,0,1-2.559-1.981,9.037,9.037,0,0,1-1.6-3.068,12.935,12.935,0,0,1-.545-3.412c-.007-.194-.011-.394-.011-.593a13.455,13.455,0,0,1,.556-3.982,9.022,9.022,0,0,1,1.6-3.09,7.248,7.248,0,0,1,2.559-2,7.966,7.966,0,0,1,3.47-.72,8.252,8.252,0,0,1,3.451.7,7.036,7.036,0,0,1,2.581,1.979,9.082,9.082,0,0,1,1.6,3.092,13.631,13.631,0,0,1,.558,4.025A13.416,13.416,0,0,1,460.389,637.341Zm-15.821-4.005c0,.2,0,.4.011.594v-.594Z" transform="translate(-403.959 -617.579)"/></g><g class="c"><g class="d" transform="translate(817 3295)"><path class="e" d="M143,0A143,143,0,1,1,0,143,143,143,0,0,1,143,0Z"/><path class="f" d="M 143 1 C 133.3648223876953 1 123.7359924316406 1.97064208984375 114.3809967041016 3.884979248046875 C 105.2642517089844 5.75048828125 96.29670715332031 8.5341796875 87.72749328613281 12.15863037109375 C 79.31364440917969 15.71743774414063 71.19839477539063 20.12225341796875 63.60714721679688 25.25079345703125 C 56.08778381347656 30.33074951171875 49.01689147949219 36.16477966308594 42.5908203125 42.5908203125 C 36.16477966308594 49.01689147949219 30.33074951171875 56.08778381347656 25.25079345703125 63.60714721679688 C 20.12225341796875 71.19839477539063 15.71743774414063 79.31364440917969 12.15863037109375 87.72749328613281 C 8.5341796875 96.29670715332031 5.75048828125 105.2642517089844 3.884979248046875 114.3809967041016 C 1.97064208984375 123.7359924316406 1 133.3648223876953 1 143 C 1 152.6351776123047 1.97064208984375 162.2640075683594 3.884979248046875 171.6190032958984 C 5.75048828125 180.7357482910156 8.5341796875 189.7032775878906 12.15863037109375 198.2724914550781 C 15.71743774414063 206.6863555908203 20.12225341796875 214.8016052246094 25.25079345703125 222.3928527832031 C 30.33074951171875 229.9122161865234 36.16477966308594 236.9831085205078 42.5908203125 243.4091796875 C 49.01689147949219 249.835205078125 56.08778381347656 255.6692504882813 63.60714721679688 260.7492065429688 C 71.19839477539063 265.8777465820313 79.31364440917969 270.2825622558594 87.72749328613281 273.8413696289063 C 96.29670715332031 277.4658203125 105.2642517089844 280.24951171875 114.3809967041016 282.1150207519531 C 123.7359924316406 284.0293579101563 133.3648223876953 285 143 285 C 152.6351776123047 285 162.2640075683594 284.0293579101563 171.6190032958984 282.1150207519531 C 180.7357482910156 280.24951171875 189.7032775878906 277.4658203125 198.2724914550781 273.8413696289063 C 206.6863555908203 270.2825622558594 214.8016052246094 265.8777465820313 222.3928527832031 260.7492065429688 C 229.9122161865234 255.6692504882813 236.9831085205078 249.835205078125 243.4091796875 243.4091796875 C 249.835205078125 236.9831085205078 255.6692504882813 229.9122161865234 260.7492065429688 222.3928527832031 C 265.8777465820313 214.8016052246094 270.2825622558594 206.6863555908203 273.8413696289063 198.2724914550781 C 277.4658203125 189.7032775878906 280.24951171875 180.7357482910156 282.1150207519531 171.6190032958984 C 284.0293579101563 162.2640075683594 285 152.6351776123047 285 143 C 285 133.3648223876953 284.0293579101563 123.7359924316406 282.1150207519531 114.3809967041016 C 280.24951171875 105.2642517089844 277.4658203125 96.29670715332031 273.8413696289063 87.72749328613281 C 270.2825622558594 79.31364440917969 265.8777465820313 71.19839477539063 260.7492065429688 63.60714721679688 C 255.6692504882813 56.08778381347656 249.835205078125 49.01689147949219 243.4091796875 42.5908203125 C 236.9831085205078 36.16477966308594 229.9122161865234 30.33074951171875 222.3928527832031 25.25079345703125 C 214.8016052246094 20.12225341796875 206.6863555908203 15.71743774414063 198.2724914550781 12.15863037109375 C 189.7032775878906 8.5341796875 180.7357482910156 5.75048828125 171.6190032958984 3.884979248046875 C 162.2640075683594 1.97064208984375 152.6351776123047 1 143 1 M 143 0 C 221.9767150878906 0 286 64.02328491210938 286 143 C 286 221.9767150878906 221.9767150878906 286 143 286 C 64.02328491210938 286 0 221.9767150878906 0 143 C 0 64.02328491210938 64.02328491210938 0 143 0 Z"/></g></g></g></svg>