<svg xmlns="http://www.w3.org/2000/svg" width="341.741" height="514.655" viewBox="0 0 341.741 514.655"><defs><style>.a{fill:#e2e2e2;mix-blend-mode:multiply;isolation:isolate;}.b,.e{fill:#080a41;}.c{fill:#fff;}.d{fill:#002c6d;}.e{font-size:11px;}.e,.h{font-family:Heebo-Regular, Heebo;}.f{fill:#ffcbbb;}.g,.i{fill:#003797;}.h{fill:#e5e1ff;font-size:7px;letter-spacing:0.005em;}.i{font-size:3px;font-family:Montserrat-Regular, Montserrat;letter-spacing:0.2em;}.j,.k,.m{fill:none;}.j{stroke:#080a41;}.j,.m{stroke-miterlimit:10;}.l{fill:#ff9671;}.m{stroke:#003797;stroke-linecap:round;}</style></defs><g transform="translate(-1152.146 -1903.944)"><rect class="a" width="243.854" height="468.394" rx="22.5" transform="translate(1165.139 1958.811) rotate(-11)"/><path class="b" d="M26.051,0H217.8a26.051,26.051,0,0,1,26.051,26.051V442.343A26.051,26.051,0,0,1,217.8,468.394H26.051A26.051,26.051,0,0,1,0,442.343V26.051A26.051,26.051,0,0,1,26.051,0Z" transform="translate(1152.146 1950.474) rotate(-11)"/><path class="c" d="M22.078,0H203.455a22.078,22.078,0,0,1,22.078,22.078V424.989a22.078,22.078,0,0,1-22.078,22.078H22.078A22.078,22.078,0,0,1,0,424.989V22.078A22.078,22.078,0,0,1,22.078,0Z" transform="translate(1163.172 1959.193) rotate(-11)"/><g transform="translate(1229.202 1942.833) rotate(-11)"><path class="b" d="M0,0H89.657a0,0,0,0,1,0,0V10.127a9.085,9.085,0,0,1-9.085,9.085H9.085A9.085,9.085,0,0,1,0,10.127V0A0,0,0,0,1,0,0Z"/><g transform="translate(18.882 5.063)"><rect class="d" width="37.11" height="3.014" transform="translate(0 0.628)"/><path class="d" d="M-847.281,637.037a2.134,2.134,0,0,1-2.134,2.135,2.133,2.133,0,0,1-2.133-2.135,2.134,2.134,0,0,1,2.133-2.134A2.135,2.135,0,0,1-847.281,637.037Z" transform="translate(899.173 -634.903)"/></g></g><text class="e" transform="translate(1341 2255) rotate(-11)"><tspan x="-52.876" y="0">OP </tspan><tspan y="0">תפריט היתרונות של</tspan></text><g transform="translate(1290.972 2344.964) rotate(-11)"><g transform="translate(42.917 0.779)"><path class="f" d="M-878.847,912.571a2.6,2.6,0,0,1-2.6,2.6,2.6,2.6,0,0,1-2.6-2.6,2.6,2.6,0,0,1,2.6-2.6A2.6,2.6,0,0,1-878.847,912.571Z" transform="translate(884.056 -909.968)"/><path class="g" d="M-864.7,912.571a2.6,2.6,0,0,1-2.6,2.6,2.6,2.6,0,0,1-2.6-2.6,2.6,2.6,0,0,1,2.6-2.6A2.6,2.6,0,0,1-864.7,912.571Z" transform="translate(891.082 -909.968)"/><path class="g" d="M-850.561,912.571a2.6,2.6,0,0,1-2.6,2.6,2.6,2.6,0,0,1-2.6-2.6,2.6,2.6,0,0,1,2.6-2.6A2.6,2.6,0,0,1-850.561,912.571Z" transform="translate(898.109 -909.968)"/></g></g><path class="b" d="M-812.921,904.261h-78.432a8.675,8.675,0,0,1-8.675-8.675h0a8.675,8.675,0,0,1,8.675-8.675h78.432a8.675,8.675,0,0,1,8.675,8.675h0A8.675,8.675,0,0,1-812.921,904.261Z" transform="translate(2016.458 1265.876) rotate(-11)"/><text class="h" transform="translate(1349.699 2309.741) rotate(-11)"><tspan x="-12.307" y="0">רשק רוצ</tspan></text><text class="i" transform="translate(1198 1963.146) rotate(-11)"><tspan x="-4.002" y="0">8:30</tspan></text><g transform="translate(1329.621 1935.016) rotate(-11)"><rect class="g" width="1.768" height="2.893" transform="translate(0 3.575)"/><rect class="g" width="1.768" height="4.058" transform="translate(2.531 2.41)"/><rect class="g" width="1.768" height="5.182" transform="translate(5.062 1.286)"/><rect class="g" width="1.768" height="6.468" transform="translate(7.593)"/></g><g transform="translate(1341.418 1932.724) rotate(-11)"><path class="g" d="M-819.909,642.484a5.622,5.622,0,0,1,3.935-1.606,5.617,5.617,0,0,1,3.933,1.606l1.19-1.19a7.3,7.3,0,0,0-5.123-2.1,7.3,7.3,0,0,0-5.125,2.1Z" transform="translate(821.099 -639.196)"/><path class="g" d="M-818.848,643.328a3.383,3.383,0,0,1,2.347-.949,3.378,3.378,0,0,1,2.346.949l1.19-1.19a5.063,5.063,0,0,0-3.535-1.443,5.062,5.062,0,0,0-3.535,1.443Z" transform="translate(821.627 -638.451)"/><path class="g" d="M-817.782,644.174a1.143,1.143,0,0,1,.755-.3,1.142,1.142,0,0,1,.754.3l1.2-1.194a2.829,2.829,0,0,0-1.95-.786,2.83,2.83,0,0,0-1.951.786Z" transform="translate(822.152 -637.706)"/></g><g transform="translate(1354.063 1931.063) rotate(-11)"><rect class="g" width="11.249" height="4.901" rx="0.222"/><rect class="g" width="0.904" height="2.109" rx="0.222" transform="translate(11.51 1.396)"/></g><path class="g" d="M-892.834,820.976a7.312,7.312,0,0,0,7.3-7.3,7.311,7.311,0,0,0-7.3-7.3,7.312,7.312,0,0,0-7.3,7.3,7.312,7.312,0,0,0,7.3,7.3Zm0-13.279a5.982,5.982,0,0,1,5.975,5.975,5.983,5.983,0,0,1-5.975,5.977,5.983,5.983,0,0,1-5.976-5.977,5.982,5.982,0,0,1,5.976-5.975Zm0,0" transform="translate(2002.77 1237.611) rotate(-11)"/><path class="g" d="M-881.07,807.256a2.659,2.659,0,0,0-2.655,2.655,2.659,2.659,0,0,0,2.655,2.657,2.659,2.659,0,0,0,2.657-2.657,2.659,2.659,0,0,0-2.657-2.655Zm0,3.984a1.33,1.33,0,0,1-1.328-1.329,1.329,1.329,0,0,1,1.328-1.328,1.328,1.328,0,0,1,1.328,1.328,1.329,1.329,0,0,1-1.328,1.329Zm0,0" transform="translate(2010.858 1236.487) rotate(-11)"/><g transform="translate(6 12)"><g transform="translate(1217.455 2003.406) rotate(-11)"><path class="j" d="M-789.224,694.654H-898.956A12.453,12.453,0,0,1-911.408,682.2h0a12.451,12.451,0,0,1,12.452-12.452h109.732A12.452,12.452,0,0,1-776.771,682.2h0A12.453,12.453,0,0,1-789.224,694.654Z" transform="translate(911.408 -669.749)"/><path class="f" d="M-890.2,681.26a9.616,9.616,0,0,1-9.616,9.617,9.617,9.617,0,0,1-9.617-9.617,9.618,9.618,0,0,1,9.617-9.617A9.617,9.617,0,0,1-890.2,681.26Z" transform="translate(912.391 -668.808)"/><g transform="translate(5.13 6.646)"><path class="b" d="M-898.889,680.713c.279-.073.483-.12.684-.183a1.219,1.219,0,0,1,1.018.123q1.974,1.2,3.933,2.419c.065.039.084.149.166.308a5.8,5.8,0,0,1-1.533,2.422,28.115,28.115,0,0,1-4.727-3.023c-.039-.241-.084-.522-.148-.922-.372.4-.65.736-.965,1.028a4.233,4.233,0,0,1-4.622,1.045,4.214,4.214,0,0,1-2.652-2.925,5.381,5.381,0,0,1,.855-4.891,4.454,4.454,0,0,1,4.769-1.768A4.51,4.51,0,0,1-898.9,678.3C-898.832,679.038-898.889,679.787-898.889,680.713Zm-7.954-1.317a3.907,3.907,0,0,0,.867,2.562,3.144,3.144,0,0,0,3.591.886,4.2,4.2,0,0,0,1.305-6.638,2.918,2.918,0,0,0-3.031-.754A4.109,4.109,0,0,0-906.843,679.4Zm11.92,5c.156-.332.256-.542.347-.737-1.5-1.139-2.926-1.964-3.289-1.829l-.257.519C-897.093,683.056-896.105,683.695-894.923,684.4Z" transform="translate(907.981 -674.189)"/><path class="k" d="M-898.2,681.864c-1.182-.7-2.17-1.34-3.2-2.046l.257-.519c.362-.135,1.787.69,3.288,1.829C-897.939,681.322-898.04,681.532-898.2,681.864Z" transform="translate(911.253 -671.658)"/></g><rect class="l" width="62.14" height="62.141" rx="8.417" transform="translate(0 32.425)"/><rect class="f" width="62.14" height="62.141" rx="8.417" transform="translate(72.497 32.425)"/><rect class="f" width="62.14" height="62.141" rx="8.417" transform="translate(0 101.963)"/><path class="f" d="M8.416,0H53.723A8.417,8.417,0,0,1,62.14,8.417V53.724a8.417,8.417,0,0,1-8.417,8.417H8.417A8.417,8.417,0,0,1,0,53.724V8.416A8.416,8.416,0,0,1,8.416,0Z" transform="translate(72.497 101.963)"/><rect class="f" width="62.14" height="62.141" rx="8.417" transform="translate(0 173.408)"/><path class="f" d="M8.416,0H53.723A8.417,8.417,0,0,1,62.14,8.417V53.724a8.417,8.417,0,0,1-8.417,8.417H8.417A8.417,8.417,0,0,1,0,53.724V8.416A8.416,8.416,0,0,1,8.416,0Z" transform="translate(72.497 173.408)"/></g><g transform="translate(1311.168 2028.569) rotate(-11)"><path class="g" d="M-827.046,706.782l1.622-2.821a.562.562,0,0,0-.207-.766l-2.295-1.317a.561.561,0,0,0-.765.206l-1.619,2.82a16.252,16.252,0,0,0-4.586-1.223v-1.715h1.139a.56.56,0,0,0,.56-.561v-2.645a.56.56,0,0,0-.56-.561H-839.8a.561.561,0,0,0-.561.561V701.4a.562.562,0,0,0,.561.561h1.138v1.712a16.291,16.291,0,0,0-4.585,1.225l-1.619-2.82a.562.562,0,0,0-.766-.207l-2.294,1.317a.562.562,0,0,0-.207.766l1.622,2.823a16.376,16.376,0,0,0-5.821,18.294,16.375,16.375,0,0,0,15.554,11.253,16.375,16.375,0,0,0,15.553-11.253,16.376,16.376,0,0,0-5.821-18.294Zm-.951-3.655,1.32.76-1.3,2.26q-.642-.411-1.319-.762Zm-11.242-3.806h4.921v1.522h-4.921Zm1.7,2.645h1.522v1.621c-.251-.012-.5-.019-.76-.019s-.509.008-.762.019Zm-9.341,1.922,1.32-.759,1.3,2.257q-.678.35-1.318.762Zm10.1,31.309a15.256,15.256,0,0,1-14.094-9.416,15.256,15.256,0,0,1,3.306-16.623,15.253,15.253,0,0,1,16.625-3.307,15.253,15.253,0,0,1,9.416,14.092A15.272,15.272,0,0,1-836.778,735.2Zm0,0" transform="translate(853.156 -698.198)"/><path class="g" d="M-826.96,723.26a12.675,12.675,0,0,0-.034-12.688c-.008-.018-.016-.037-.026-.055s-.021-.028-.033-.043a12.794,12.794,0,0,0-4.523-4.5.573.573,0,0,0-.048-.034.511.511,0,0,0-.055-.025,12.669,12.669,0,0,0-12.687.034.556.556,0,0,0-.057.025.461.461,0,0,0-.044.033,12.8,12.8,0,0,0-4.5,4.523.337.337,0,0,0-.06.1,12.669,12.669,0,0,0,.036,12.687.4.4,0,0,0,.026.057.245.245,0,0,0,.025.033,12.794,12.794,0,0,0,4.528,4.508.552.552,0,0,0,.049.036.292.292,0,0,0,.043.018,12.671,12.671,0,0,0,12.715-.036.312.312,0,0,0,.042-.018c.014-.008.027-.021.042-.032a12.812,12.812,0,0,0,4.508-4.535.356.356,0,0,0,.027-.036.582.582,0,0,0,.025-.055Zm-4.7,3.39-.72-1.23a.562.562,0,0,0-.968.569l.721,1.232a11.494,11.494,0,0,1-4.809,1.308V727.1a.561.561,0,0,0-1.123,0v1.431a11.524,11.524,0,0,1-4.751-1.28l.715-1.236a.561.561,0,0,0-.971-.561l-.714,1.233a11.661,11.661,0,0,1-3.42-3.4l1.23-.721a.561.561,0,0,0-.567-.968l-1.232.723a11.532,11.532,0,0,1-1.31-4.811h1.431a.561.561,0,0,0,0-1.123h-1.431a11.5,11.5,0,0,1,1.28-4.75l1.236.714a.56.56,0,0,0,.561-.97l-1.233-.716a11.674,11.674,0,0,1,3.4-3.419l.721,1.23a.561.561,0,0,0,.969-.567l-.723-1.232a11.5,11.5,0,0,1,4.811-1.308V706.8a.561.561,0,1,0,1.121,0v-1.431a11.5,11.5,0,0,1,4.752,1.278l-.717,1.236a.56.56,0,0,0,.2.773.56.56,0,0,0,.769-.211l.714-1.236a11.682,11.682,0,0,1,3.42,3.4l-1.23.721a.562.562,0,0,0-.2.769.561.561,0,0,0,.769.2l1.233-.721a11.515,11.515,0,0,1,1.308,4.809h-1.431a.561.561,0,1,0,0,1.122h1.431a11.52,11.52,0,0,1-1.28,4.75l-1.235-.714a.561.561,0,0,0-.563.972l1.234.714a11.7,11.7,0,0,1-3.4,3.42Zm0,0" transform="translate(854.37 -695.202)"/><path class="g" d="M-832.9,715.535a.561.561,0,0,0-.561-.561h-5.4a2.569,2.569,0,0,0-1.937-1.938v-5.4a.561.561,0,0,0-1.123,0v5.4a2.565,2.565,0,0,0-1.9,1.786,2.564,2.564,0,0,0,.648,2.527,2.562,2.562,0,0,0,2.527.649,2.562,2.562,0,0,0,1.786-1.9h5.4a.562.562,0,0,0,.561-.561Zm-8.463,1.442a1.442,1.442,0,0,1-1.332-.891,1.439,1.439,0,0,1,.313-1.57,1.444,1.444,0,0,1,1.57-.313,1.443,1.443,0,0,1,.889,1.332,1.444,1.444,0,0,1-1.44,1.442Zm0,0" transform="translate(857.741 -693.79)"/></g><g transform="translate(1237.13 2042.266) rotate(-11)"><path class="c" d="M-880,712.035a.576.576,0,0,0-.576-.576.577.577,0,0,0-.576.576.733.733,0,0,1-.73.732.733.733,0,0,1-.732-.732.577.577,0,0,0-.576-.576.576.576,0,0,0-.576.576,1.887,1.887,0,0,0,1.884,1.885A1.886,1.886,0,0,0-880,712.035Z" transform="translate(913.243 -690.929)"/><path class="c" d="M-865.379,718.367l-1.623-.519a.675.675,0,0,1-.437-.445,10.444,10.444,0,0,0-1.534-3.031A10.913,10.913,0,0,0-870,713.164h0a14.316,14.316,0,0,0,.353-3.265c-.024-1.468-.317-2.329-.9-2.633-.311-.163-1.26-.66-6.4,1.693a1.956,1.956,0,0,0-.341.2c-.346-.093-.7-.178-1.057-.256l-.13-.027h0a7.842,7.842,0,0,0,.7-2.919.574.574,0,0,0-.549-.6.576.576,0,0,0-.6.549,6.691,6.691,0,0,1-1.959,4.444A6.667,6.667,0,0,1-883.3,711.9a16.724,16.724,0,0,0-4.638,0,6.671,6.671,0,0,1-2.426-1.551,6.668,6.668,0,0,1-1.967-4.746,6.668,6.668,0,0,1,1.967-4.746,6.667,6.667,0,0,1,4.745-1.965,6.668,6.668,0,0,1,4.746,1.965,6.688,6.688,0,0,1,1.251,1.729.577.577,0,0,0,.774.254.575.575,0,0,0,.256-.774,7.83,7.83,0,0,0-1.465-2.024,7.81,7.81,0,0,0-5.56-2.3,7.812,7.812,0,0,0-5.562,2.3,7.815,7.815,0,0,0-2.3,5.561,7.814,7.814,0,0,0,2.3,5.56,7.921,7.921,0,0,0,1.387,1.106h0q-.539.14-1.066.315a.577.577,0,0,0-.364.73.577.577,0,0,0,.729.364,15.458,15.458,0,0,1,9.746,0,.606.606,0,0,0,.182.03.577.577,0,0,0,.546-.394.576.576,0,0,0-.364-.73q-.528-.175-1.066-.315h0a7.923,7.923,0,0,0,1.387-1.106,7.937,7.937,0,0,0,1-1.232c.159.03.316.063.471.1.207.045.413.094.617.144-.006.026-.013.051-.018.076a6.867,6.867,0,0,0,.054,3.505A4.173,4.173,0,0,0-876.4,715.9a4.846,4.846,0,0,0,2.837.9,3.807,3.807,0,0,0,1.838-.425,3.515,3.515,0,0,0,1.355-1.923c.165.193.323.392.471.6a9.311,9.311,0,0,1,1.363,2.7,1.839,1.839,0,0,0,1.186,1.194l1.623.519a1.021,1.021,0,0,1,.711.974v2.69a1.021,1.021,0,0,1-.711.974l-2.614.836a1.786,1.786,0,0,0-1,.81,11.487,11.487,0,0,1-4.8,4.363.9.9,0,0,0-.474.636l-.837,4.432a.258.258,0,0,1-.255.21h-2.721a.257.257,0,0,1-.253-.21l-.464-2.45a.906.906,0,0,0-1.03-.727,24.167,24.167,0,0,1-3.589.266,23.057,23.057,0,0,1-2.64-.148.911.911,0,0,0-1,.732l-.442,2.327a.257.257,0,0,1-.253.21h-2.721a.258.258,0,0,1-.255-.213l-.807-4.185a.9.9,0,0,0-.464-.629,10.177,10.177,0,0,1-5.62-9.482,11.071,11.071,0,0,1,1.393-5.631,10.048,10.048,0,0,1,3.745-3.657.575.575,0,0,0,.209-.787.575.575,0,0,0-.787-.21,10.968,10.968,0,0,0-5.565,8.192h0l-.166-.016a2.842,2.842,0,0,0-.211-1.15,2.358,2.358,0,0,0-1.748-1.527,1.589,1.589,0,0,0-1.5.668,1.515,1.515,0,0,0-.289,1.655c.29.6,1.036,1.021,2.273,1.287a1.629,1.629,0,0,1-.112.152A2.818,2.818,0,0,1-902.869,721a.605.605,0,0,0-.59.6v0a.6.6,0,0,0,.578.6c.042,0,.085,0,.13,0a3.739,3.739,0,0,0,2.935-1.63,3.26,3.26,0,0,0,.422-.68c.108.014.212.024.313.033h0c-.019.313-.031.63-.031.952a11.882,11.882,0,0,0,1.7,6.358,11.654,11.654,0,0,0,4.428,4.085l.783,4.07a1.414,1.414,0,0,0,1.388,1.148h2.721a1.413,1.413,0,0,0,1.386-1.148l.4-2.1a24.126,24.126,0,0,0,2.549.132,25.376,25.376,0,0,0,3.531-.245l.419,2.218a1.413,1.413,0,0,0,1.386,1.148h2.721a1.414,1.414,0,0,0,1.387-1.148l.814-4.315a12.557,12.557,0,0,0,5.158-4.754.628.628,0,0,1,.35-.287l2.613-.838a2.169,2.169,0,0,0,1.512-2.071v-2.69A2.168,2.168,0,0,0-865.379,718.367Zm-5.5-6.848c-.222,1.9-.817,3.519-1.414,3.857a3.525,3.525,0,0,1-3.426-.4c-1.178-.862-1.572-2.413-1.135-4.486h0a.692.692,0,0,1,.4-.48,16.764,16.764,0,0,1,5.165-1.753.6.6,0,0,1,.21.028C-870.9,708.481-870.659,709.6-870.883,711.519Zm-30.958,6.4c-.06-.123.081-.34.171-.458a.459.459,0,0,1,.37-.224.359.359,0,0,1,.058,0,1.251,1.251,0,0,1,.832.816,1.772,1.772,0,0,1,.121.543C-901.086,718.431-901.706,718.193-901.841,717.916Z" transform="translate(903.459 -697.743)"/><path class="c" d="M-890.866,708c-1.26-.021-2.114-.7-2.114-1.2,0-.244.214-.579.469-.579.334,0,.609.711,1.645.793v-2.387c-.915-.325-1.93-.692-1.93-1.991a1.886,1.886,0,0,1,1.93-1.89v-.294a.267.267,0,0,1,.295-.234c.151,0,.3.111.3.234v.274c.691.021,1.666.234,1.666.732,0,.193-.142.578-.446.578-.244,0-.509-.325-1.22-.376v2.063c.885.325,1.849.772,1.849,2.154a1.967,1.967,0,0,1-1.849,2.091v.346c0,.123-.151.234-.3.234a.267.267,0,0,1-.295-.234V708Zm.061-4.47v-1.848c-.569.07-.976.325-.976.853C-891.781,703.11-891.344,703.322-890.805,703.526Zm.478,1.32v2.144a.967.967,0,0,0,.893-1.006A1.19,1.19,0,0,0-890.327,704.846Z" transform="translate(908.664 -696.515)"/></g><g transform="translate(1255.104 2114.638) rotate(-11)"><path class="g" d="M-886.067,753.721a.7.7,0,0,0,.5.207.706.706,0,0,0,.5-.207.707.707,0,0,0,0-1l-.011-.01a.707.707,0,0,0-1,0,.706.706,0,0,0,0,1Zm0,0" transform="translate(908.156 -745.01)"/><path class="g" d="M-867.419,762.888l2.461-2.461a.7.7,0,0,0,.152-.769.706.706,0,0,0-.651-.436h-5.1a15.347,15.347,0,0,0-4.067-7.216,15.29,15.29,0,0,0-10.883-4.508,15.293,15.293,0,0,0-10.883,4.508,15.287,15.287,0,0,0-4.507,10.881,15.288,15.288,0,0,0,4.507,10.883,15.4,15.4,0,0,0,2.83,2.238l-2.128,3.758a.707.707,0,0,0,.006.7.7.7,0,0,0,.609.35h3.635a.707.707,0,0,0,.615-.358l1.5-2.657a15.544,15.544,0,0,0,3.812.473,15.528,15.528,0,0,0,3.812-.473l1.5,2.657a.7.7,0,0,0,.614.358h3.636a.708.708,0,0,0,.611-.35.711.711,0,0,0,0-.7l-2.127-3.757a15.51,15.51,0,0,0,2.829-2.239,15.346,15.346,0,0,0,4.067-7.216h5.1a.706.706,0,0,0,.651-.435.7.7,0,0,0-.152-.769Zm-1.29-.7h-4.927l1.548-1.548h4.927Zm-23.14,17.226h-2.013l1.537-2.715a15.189,15.189,0,0,0,1.622.69Zm14.7,0h-2.013l-1.145-2.025a15.307,15.307,0,0,0,1.622-.69Zm1.53-6.637a14.021,14.021,0,0,1-3.1,2.341l-.042.021-.024.017a13.8,13.8,0,0,1-2.708,1.133.693.693,0,0,0-.109.031,14,14,0,0,1-3.907.552,14.007,14.007,0,0,1-3.907-.552.689.689,0,0,0-.109-.031,13.745,13.745,0,0,1-2.706-1.133l-.026-.017-.042-.019a14.085,14.085,0,0,1-3.1-2.342,13.892,13.892,0,0,1-4.093-9.885A13.891,13.891,0,0,1-895.392,753a13.891,13.891,0,0,1,9.885-4.1,13.888,13.888,0,0,1,9.885,4.1,13.927,13.927,0,0,1,3.607,6.218h-.365a.712.712,0,0,0-.5.207l-1.874,1.874a10.852,10.852,0,0,0-1.23-3.666.706.706,0,0,0-.959-.277.7.7,0,0,0-.277.958,9.371,9.371,0,0,1,1.14,3.865h-3.113a6.3,6.3,0,0,0-1.82-3.787,6.312,6.312,0,0,0-4.493-1.862A6.313,6.313,0,0,0-890,758.4a6.317,6.317,0,0,0-1.861,4.492A6.318,6.318,0,0,0-890,767.381a6.313,6.313,0,0,0,4.493,1.862,6.313,6.313,0,0,0,4.493-1.862,6.305,6.305,0,0,0,1.82-3.787h3.11a9.471,9.471,0,0,1-2.735,5.984,9.4,9.4,0,0,1-6.689,2.77,9.4,9.4,0,0,1-6.689-2.77,9.4,9.4,0,0,1-2.771-6.691A9.4,9.4,0,0,1-892.2,756.2a9.5,9.5,0,0,1,11.258-1.6.7.7,0,0,0,.96-.277.706.706,0,0,0-.277-.959,10.949,10.949,0,0,0-6.7-1.251,10.771,10.771,0,0,0-6.235,3.086,10.8,10.8,0,0,0-3.185,7.687,10.8,10.8,0,0,0,3.185,7.689,10.8,10.8,0,0,0,7.687,3.184,10.8,10.8,0,0,0,7.687-3.184,10.771,10.771,0,0,0,3.068-6.1l1.871,1.872a.712.712,0,0,0,.5.206h.365a13.946,13.946,0,0,1-3.607,6.218Zm-7.578-11.215a.707.707,0,0,0-.965-.259l-1.695.979a.705.705,0,0,0-.353.611.706.706,0,0,0,.353.612l1.695.979a.722.722,0,0,0,.353.094.708.708,0,0,0,.612-.353.706.706,0,0,0,.039-.626h2.546a4.9,4.9,0,0,1-1.4,2.788,4.908,4.908,0,0,1-3.495,1.447A4.9,4.9,0,0,1-889,766.383a4.908,4.908,0,0,1-1.449-3.495A4.908,4.908,0,0,1-889,759.394a4.9,4.9,0,0,1,3.494-1.447,4.909,4.909,0,0,1,3.495,1.447,4.9,4.9,0,0,1,1.4,2.789h-2.546a.706.706,0,0,0-.039-.626Zm11.112,3.585-1.548-1.548h4.927l1.548,1.548Zm0,0" transform="translate(900.897 -747.498)"/></g><g transform="translate(1336.948 2170.612) rotate(-11)"><g transform="translate(8.974 16.459)"><path class="m" d="M-843.708,805.973s1.894,3.921,1.894,5.508" transform="translate(850.672 -805.47)"/><path class="m" d="M-837.457,815.872s.581-2.814-.132-4.127c-.958-1.768-2.314-2.113-2.842-3.17s-1.539-2.938-1.539-2.938" transform="translate(851.536 -805.637)"/><path class="m" d="M-848.361,805.637c.527.529,9.633,12.348,12.8,14.462l2.113,1.584" transform="translate(848.361 -805.637)"/><path class="m" d="M-840.75,810.59s-4.958-4.424-5.487-4.953" transform="translate(849.416 -805.637)"/><path class="m" d="M-836.858,805.973c-.407.636-1.97,3.393-1.443,4.45s2.793,2.642,1.735,4.754c0,0-.542.7.513,1.224" transform="translate(853.305 -805.47)"/><path class="m" d="M-840.454,809.169A32.021,32.021,0,0,1-838.692,806" transform="translate(852.289 -805.456)"/><path class="m" d="M-839.495,817.229s.241,2.51,1.733,3.169a8.491,8.491,0,0,0,2.115-7.922l6.867,3.17" transform="translate(852.765 -802.24)"/><line class="m" x1="3.922" y1="0.921" transform="translate(15.119 18.223)"/></g><line class="m" x2="34.215" transform="translate(0 15.766)"/><path class="m" d="M-852.612,809.819a14.5,14.5,0,0,1,14.5-14.495,14.5,14.5,0,0,1,14.5,14.495" transform="translate(855.223 -794.301)"/><line class="m" x2="1.498" transform="translate(16.358)"/><path class="m" d="M-841.294,798a8.982,8.982,0,0,1,4.142,2.6" transform="translate(860.846 -792.971)"/><line class="m" transform="translate(25.249 9.522)"/><line class="m" x2="18.627" transform="translate(8.974 12.714)"/><line class="m" x1="3.179" transform="translate(2.885 12.714)"/></g><path class="g" d="M-845.185,756.059l5.551,5.551,12.221-12.214v1.986h1.112V747.5h-3.891v1.112h1.993l-11.435,11.435-5.551-5.558-7.056,7.056.779.786Z" transform="translate(2020.546 1204.363) rotate(-11)"/><path class="g" d="M-821.257,777.128V752.693h-5.552v24.435h-1.111v-21.1h-5.551v21.106h-1.112V763.8h-5.557v13.326h-1.112V760.467H-846.8v16.661h-1.111v-7.774h-5.552v7.774h-1.112v1.111h34.433v-1.111ZM-825.7,753.8h3.335v23.324H-825.7Zm-6.67,3.335h3.335v20h-3.335Zm-6.664,7.776h3.335v12.219h-3.335V764.914Zm-6.662-3.336h3.335v15.55h-3.335Zm-6.662,8.886h3.335v6.664h-3.335Z" transform="translate(2019.899 1207.118) rotate(-11)"/><path class="g" d="M-904.077,816.721a.663.663,0,0,0,.522.6l2.314.5a10.6,10.6,0,0,0,.31,1.163l-1.751,1.586a.661.661,0,0,0-.153.777,13.284,13.284,0,0,0,1.06,1.85.667.667,0,0,0,.75.254l2.248-.724a11.055,11.055,0,0,0,.856.856l-.724,2.248a.664.664,0,0,0,.254.75,13.332,13.332,0,0,0,1.85,1.06.663.663,0,0,0,.777-.153l1.587-1.751a10.623,10.623,0,0,0,1.164.31l.5,2.314a.668.668,0,0,0,.6.523c.353.027.708.052,1.068.052s.714-.026,1.067-.052a.664.664,0,0,0,.6-.523l.5-2.314a10.611,10.611,0,0,0,1.163-.31l1.588,1.751a.661.661,0,0,0,.777.153,13.315,13.315,0,0,0,1.848-1.06.665.665,0,0,0,.255-.75l-.725-2.248a10.78,10.78,0,0,0,.858-.856l2.248.724a.662.662,0,0,0,.75-.254,13.278,13.278,0,0,0,1.06-1.849.668.668,0,0,0-.153-.778l-1.753-1.586a11.053,11.053,0,0,0,.311-1.163l2.314-.5a.664.664,0,0,0,.521-.6c.028-.353.052-.708.052-1.069s-.024-.714-.052-1.067a.663.663,0,0,0-.522-.6l-2.314-.5a10.591,10.591,0,0,0-.31-1.163l1.751-1.588a.661.661,0,0,0,.153-.777,13.263,13.263,0,0,0-1.06-1.848.657.657,0,0,0-.748-.254l-2.249.723a10.744,10.744,0,0,0-.856-.856l.725-2.248a.664.664,0,0,0-.255-.75,13.284,13.284,0,0,0-1.848-1.06.663.663,0,0,0-.778.153l-1.587,1.753a10.53,10.53,0,0,0-1.164-.311l-.5-2.314a.667.667,0,0,0-.6-.522,13.567,13.567,0,0,0-2.136,0,.668.668,0,0,0-.6.522l-.5,2.314a10.512,10.512,0,0,0-1.163.311l-1.587-1.753a.665.665,0,0,0-.778-.153,13.272,13.272,0,0,0-1.849,1.06.664.664,0,0,0-.254.75l.724,2.248a10.493,10.493,0,0,0-.856.856l-2.248-.723a.659.659,0,0,0-.75.254,13.263,13.263,0,0,0-1.06,1.848.661.661,0,0,0,.153.777l1.751,1.588a10.614,10.614,0,0,0-.31,1.163l-2.314.5a.665.665,0,0,0-.522.6c-.029.353-.052.707-.052,1.067s.024.716.052,1.069Zm1.289-1.539,2.259-.488a.666.666,0,0,0,.516-.543,9.173,9.173,0,0,1,.476-1.786.663.663,0,0,0-.174-.727l-1.706-1.546c.148-.285.3-.557.464-.816l2.188.7a.669.669,0,0,0,.718-.211,9.408,9.408,0,0,1,1.313-1.313.663.663,0,0,0,.211-.718l-.705-2.188c.259-.162.531-.316.816-.464l1.546,1.706a.664.664,0,0,0,.727.175,9.181,9.181,0,0,1,1.787-.477.664.664,0,0,0,.542-.516l.486-2.257a8.152,8.152,0,0,1,.943,0l.488,2.257a.663.663,0,0,0,.543.516,9.221,9.221,0,0,1,1.786.477.664.664,0,0,0,.727-.175l1.546-1.706c.284.148.557.3.816.464l-.7,2.19a.663.663,0,0,0,.211.717,9.321,9.321,0,0,1,1.313,1.314.666.666,0,0,0,.718.211l2.188-.705c.16.258.316.53.464.814l-1.706,1.546a.663.663,0,0,0-.175.727,9.253,9.253,0,0,1,.477,1.786.665.665,0,0,0,.515.543l2.259.486c.009.156.015.314.015.471s0,.316-.013.472l-2.259.488a.668.668,0,0,0-.517.542,9.19,9.19,0,0,1-.476,1.787.662.662,0,0,0,.175.727l1.7,1.544c-.148.286-.3.558-.464.817l-2.188-.7a.66.66,0,0,0-.718.211,9.465,9.465,0,0,1-1.313,1.313.662.662,0,0,0-.211.717l.7,2.188q-.388.243-.816.466l-1.546-1.708a.665.665,0,0,0-.727-.174,9.174,9.174,0,0,1-1.786.476.663.663,0,0,0-.542.516l-.488,2.259a8.973,8.973,0,0,1-.942,0l-.488-2.259a.667.667,0,0,0-.543-.516,9.25,9.25,0,0,1-1.787-.476.661.661,0,0,0-.726.174l-1.546,1.706c-.285-.148-.559-.3-.816-.464l.7-2.188a.666.666,0,0,0-.211-.718,9.391,9.391,0,0,1-1.314-1.313.662.662,0,0,0-.717-.213l-2.188.706q-.242-.388-.465-.816l1.706-1.546a.662.662,0,0,0,.175-.727,9.289,9.289,0,0,1-.477-1.786.664.664,0,0,0-.515-.543l-2.26-.487c-.008-.156-.014-.313-.014-.472s0-.316.014-.47Zm0,0" transform="translate(2000.446 1236.045) rotate(-11)"/><path class="g" d="M-875.85,802.955a.663.663,0,0,0,.461-.557,7.683,7.683,0,0,0,.058-.927,7.642,7.642,0,0,0-.058-.926.664.664,0,0,0-.459-.558l-1.841-.578c-.055-.151-.117-.3-.182-.443l.892-1.711a.662.662,0,0,0-.069-.719,8.015,8.015,0,0,0-1.313-1.314.667.667,0,0,0-.72-.069l-1.711.894c-.145-.068-.293-.129-.443-.183l-.58-1.842a.663.663,0,0,0-.557-.46,7.383,7.383,0,0,0-1.854,0,.665.665,0,0,0-.557.46l-.578,1.842c-.151.054-.3.115-.443.183l-1.711-.892a.668.668,0,0,0-.718.068,8.015,8.015,0,0,0-1.314,1.314.662.662,0,0,0-.069.719l.892,1.711c-.066.144-.127.292-.183.443l-1.841.578a.664.664,0,0,0-.46.558,7.654,7.654,0,0,0-.058.926,7.694,7.694,0,0,0,.058.927.661.661,0,0,0,.46.557l1.841.579c.055.15.117.3.183.443l-.892,1.709a.664.664,0,0,0,.069.72,8.012,8.012,0,0,0,1.312,1.313.663.663,0,0,0,.72.069l1.71-.892c.145.067.292.129.443.182l.579,1.841a.662.662,0,0,0,.557.461,8.061,8.061,0,0,0,.928.059,8.015,8.015,0,0,0,.926-.059.661.661,0,0,0,.557-.459l.58-1.841c.15-.055.3-.117.443-.184l1.709.893a.667.667,0,0,0,.72-.069,8.127,8.127,0,0,0,1.314-1.313.666.666,0,0,0,.067-.72l-.892-1.709q.1-.218.184-.444Zm-2.563-.587a.665.665,0,0,0-.435.443,4.869,4.869,0,0,1-.355.859.662.662,0,0,0,0,.621l.843,1.615c-.158.174-.325.341-.5.5l-1.615-.843a.662.662,0,0,0-.621,0,4.689,4.689,0,0,1-.859.353.673.673,0,0,0-.443.437l-.546,1.742a5.453,5.453,0,0,1-.7,0l-.546-1.742a.671.671,0,0,0-.443-.437,4.692,4.692,0,0,1-.859-.353.662.662,0,0,0-.621,0l-1.615.843q-.263-.238-.5-.5l.843-1.615a.661.661,0,0,0,0-.621,4.874,4.874,0,0,1-.355-.859.664.664,0,0,0-.435-.443l-1.742-.548c-.009-.121-.012-.236-.012-.349s0-.229.012-.35l1.742-.546a.665.665,0,0,0,.435-.443,4.782,4.782,0,0,1,.355-.859.664.664,0,0,0,0-.623l-.843-1.614a6.807,6.807,0,0,1,.5-.5l1.615.843a.665.665,0,0,0,.621,0,4.762,4.762,0,0,1,.859-.355.668.668,0,0,0,.443-.436l.546-1.744a6.014,6.014,0,0,1,.7,0l.546,1.744a.665.665,0,0,0,.443.436,4.759,4.759,0,0,1,.859.355.661.661,0,0,0,.621,0l1.615-.843a6.609,6.609,0,0,1,.5.5l-.843,1.614a.665.665,0,0,0,0,.623,4.777,4.777,0,0,1,.355.859.668.668,0,0,0,.435.443l1.742.546c.009.121.012.238.012.35s0,.228-.012.349Zm0,0" transform="translate(2005.877 1230.497) rotate(-11)"/><path class="g" d="M-873.6,809.882l-1.14-.4a5.405,5.405,0,0,0-.225-.543l.519-1.091a.662.662,0,0,0-.078-.693,6.654,6.654,0,0,0-1.141-1.142.664.664,0,0,0-.694-.078l-1.093.518a5.521,5.521,0,0,0-.542-.223l-.406-1.141a.668.668,0,0,0-.547-.437,6.184,6.184,0,0,0-1.61,0,.667.667,0,0,0-.546.437l-.4,1.141a5.781,5.781,0,0,0-.543.224l-1.093-.519a.662.662,0,0,0-.693.078,6.717,6.717,0,0,0-1.142,1.142.665.665,0,0,0-.076.693l.518,1.093a5.54,5.54,0,0,0-.223.542l-1.141.406a.67.67,0,0,0-.437.546,6.643,6.643,0,0,0-.054.8,6.662,6.662,0,0,0,.054.805.663.663,0,0,0,.437.546l1.141.406a5.376,5.376,0,0,0,.223.542l-.518,1.093a.661.661,0,0,0,.076.693,6.7,6.7,0,0,0,1.142,1.142.664.664,0,0,0,.693.076l1.094-.518a5.17,5.17,0,0,0,.542.223l.405,1.14a.666.666,0,0,0,.545.437,6.36,6.36,0,0,0,.805.054,6.621,6.621,0,0,0,.805-.052.663.663,0,0,0,.547-.437l.406-1.14a5.327,5.327,0,0,0,.542-.225l1.093.52a.658.658,0,0,0,.693-.078,6.753,6.753,0,0,0,1.142-1.141.667.667,0,0,0,.076-.694l-.518-1.093a5.216,5.216,0,0,0,.223-.542l1.14-.406a.667.667,0,0,0,.437-.546,6.357,6.357,0,0,0,.054-.805,6.692,6.692,0,0,0-.052-.805.665.665,0,0,0-.437-.546Zm-.844,1.594-1.052.374a.664.664,0,0,0-.419.448,3.948,3.948,0,0,1-.368.895.666.666,0,0,0-.021.612l.476,1c-.109.12-.226.237-.346.346l-1-.477a.67.67,0,0,0-.612.022,3.96,3.96,0,0,1-.893.368.671.671,0,0,0-.449.418l-.373,1.052a4.462,4.462,0,0,1-.485,0l-.374-1.052a.665.665,0,0,0-.448-.418,3.947,3.947,0,0,1-.9-.368.666.666,0,0,0-.611-.022l-1,.477c-.121-.111-.236-.226-.347-.346l.478-1a.667.667,0,0,0-.022-.612,3.971,3.971,0,0,1-.368-.893.664.664,0,0,0-.418-.449l-1.052-.374c-.006-.08-.007-.16-.007-.243s0-.162.006-.242l1.052-.374a.664.664,0,0,0,.418-.447,3.945,3.945,0,0,1,.368-.895.664.664,0,0,0,.023-.611l-.478-1c.111-.121.226-.237.347-.347l1,.477a.661.661,0,0,0,.611-.021,3.911,3.911,0,0,1,.894-.37.667.667,0,0,0,.449-.418l.374-1.052a4.34,4.34,0,0,1,.485,0l.374,1.052a.665.665,0,0,0,.448.418,3.89,3.89,0,0,1,.9.37.661.661,0,0,0,.611.021l1-.477c.121.111.236.226.346.347l-.476,1a.668.668,0,0,0,.021.611,3.947,3.947,0,0,1,.37.895.658.658,0,0,0,.418.447l1.052.374c0,.081.007.162.007.242s0,.163-.006.243Zm0,0" transform="translate(2009.307 1235.442) rotate(-11)"/><path class="g" d="M-904.12,806.525l1.019.852a15.9,15.9,0,0,1,12.245-5.737c.337,0,.675.02,1.012.041l-.817.818.939.939,1.992-1.992a.664.664,0,0,0,0-.938l-1.992-1.992-.939.938.9.9c-.365-.022-.73-.043-1.1-.043a17.228,17.228,0,0,0-13.264,6.213Zm0,0" transform="translate(2000.084 1234.158) rotate(-11)"/><path class="g" d="M-884.841,796.61a3.324,3.324,0,0,0-3.32,3.32,3.324,3.324,0,0,0,3.32,3.32,3.324,3.324,0,0,0,3.32-3.32,3.324,3.324,0,0,0-3.32-3.32Zm0,5.312a1.994,1.994,0,0,1-1.992-1.992,1.994,1.994,0,0,1,1.992-1.992,1.994,1.994,0,0,1,1.992,1.992,1.994,1.994,0,0,1-1.992,1.992Zm0,0" transform="translate(2007.685 1231.717) rotate(-11)"/><path class="g" d="M-876.289,795.068l-3.32-.663a.663.663,0,0,0-.783.521l-.663,3.318,1.3.262.358-1.787a9.961,9.961,0,0,1,.983,4.312,9.856,9.856,0,0,1-2.184,6.224l1.036.832a11.321,11.321,0,0,0,2.476-7.056,11.3,11.3,0,0,0-1.166-5l1.7.34Zm0,0" transform="translate(2010.94 1229.962) rotate(-11)"/></g></g></svg>