<svg xmlns="http://www.w3.org/2000/svg" xmlns:xlink="http://www.w3.org/1999/xlink" width="609.12" height="1014" viewBox="0 0 609.12 1014"><defs><style>.a,.ab,.b,.e,.u{fill:none;}.a,.b{stroke:#080a41;}.a{stroke-linecap:round;stroke-dasharray:7;}.c{fill:url(#a);}.d{fill:rgba(247,140,104,0.9);opacity:0.27;}.e{stroke:#f04f29;}.f{fill:#e2e2e2;mix-blend-mode:multiply;}.f,.p{isolation:isolate;}.g{fill:#080a41;}.h{fill:url(#b);}.i{fill:#002c6d;}.j,.k{fill:#003797;}.j{font-size:3px;font-family:Montserrat-Regular, Montserrat;letter-spacing:0.2em;}.l{fill:#e5e1ff;font-size:10px;font-family:Heebo-Regular, Heebo;letter-spacing:0.005em;}.m{fill:url(#c);}.n,.u{stroke:#fff;stroke-width:2px;}.n{fill:url(#d);}.o{fill:#0b0d0c;}.p{mix-blend-mode:screen;fill:url(#f);}.q{fill:url(#g);}.r{fill:#eefdff;}.s,.t,.v,.z{fill:#fff;}.t{opacity:0.56;}.v{opacity:0.47;}.w{fill:url(#l);}.x{fill:url(#q);}.y{fill:#f04f29;}.z{opacity:0.78;}.aa{stroke:none;}</style><linearGradient id="a" x1="-0.958" y1="1.402" x2="0.489" y2="-1.147" gradientUnits="objectBoundingBox"><stop offset="0" stop-color="#f68f6a"/><stop offset="1" stop-color="#ff4113"/></linearGradient><linearGradient id="b" x1="0.5" y1="0.235" x2="0.542" y2="0.952" gradientUnits="objectBoundingBox"><stop offset="0" stop-color="#fcbca6"/><stop offset="1" stop-color="#ff7146"/></linearGradient><linearGradient id="c" x1="0.5" x2="0.5" y2="1" gradientUnits="objectBoundingBox"><stop offset="0" stop-color="#f68f6a"/><stop offset="1" stop-color="#f04f29"/></linearGradient><linearGradient id="d" x1="0.5" x2="0.5" y2="1" gradientUnits="objectBoundingBox"><stop offset="0" stop-color="#f3a488"/><stop offset="1" stop-color="#f66b4a"/></linearGradient><radialGradient id="f" cx="0.5" cy="0.5" r="0.495" gradientUnits="objectBoundingBox"><stop offset="0.13" stop-color="#3280fc"/><stop offset="1"/></radialGradient><linearGradient id="g" y1="0.5" x2="1" y2="0.5" gradientUnits="objectBoundingBox"><stop offset="0" stop-color="#030d14"/><stop offset="1" stop-color="#0b2f45"/></linearGradient><linearGradient id="l" x1="0.351" y1="0.614" x2="1.353" y2="-1.559" gradientUnits="objectBoundingBox"><stop offset="0" stop-color="#f04f29"/><stop offset="0.071" stop-color="#f04f29"/><stop offset="1" stop-color="#f68f6a"/></linearGradient><linearGradient id="q" x1="0.5" x2="0.5" y2="1" gradientUnits="objectBoundingBox"><stop offset="0" stop-color="#fe5d23"/><stop offset="1" stop-color="#f0927c"/></linearGradient></defs><g transform="translate(-789 -151)"><path class="a" d="M2891.993,390s-88.974,62.142-73.135,184.429,206.362,237.38,206.362,237.38" transform="translate(-301.726 -2063.238) rotate(51)"/><g class="b" transform="translate(789 798)"><circle class="aa" cx="183.5" cy="183.5" r="183.5"/><circle class="ab" cx="183.5" cy="183.5" r="183"/></g><path class="c" d="M220.616,284.22c48.9,13.394,60.458,9.646,69.174,22.756,1,1.5,6.111,9.2,5.087,19.067a28.363,28.363,0,0,1-7.953,16.6c-16.753,16.218-62.853-3.623-89.254-25.322-5.758-4.732-21.2-17.422-18.09-26.438,1.275-3.695,5.233-5.528,8.074-6.8C200.215,278.468,213.241,282.2,220.616,284.22Z" transform="matrix(0.891, 0.454, -0.454, 0.891, 1029.501, 9.518)"/><circle class="d" cx="39.5" cy="39.5" r="39.5" transform="translate(1232 173)"/><g class="e" transform="translate(1095 151)"><circle class="aa" cx="88.5" cy="88.5" r="88.5"/><circle class="ab" cx="88.5" cy="88.5" r="88"/></g><rect class="f" width="229.92" height="441.628" rx="22.5" transform="matrix(0.978, 0.208, -0.208, 0.978, 1173.225, 224.284)"/><g transform="matrix(0.978, 0.208, -0.208, 0.978, 1165.019, 212.261)"><rect class="g" width="229.92" height="441.628" rx="22.5"/><rect class="h" width="212.646" height="421.52" rx="17.013" transform="translate(8.637 10.054)"/><g transform="translate(72.693 6.791)"><path class="g" d="M0,0H84.533a0,0,0,0,1,0,0V9.029a9.085,9.085,0,0,1-9.085,9.085H9.085A9.085,9.085,0,0,1,0,9.029V0A0,0,0,0,1,0,0Z"/><g transform="translate(17.803 4.774)"><rect class="i" width="34.989" height="2.842" transform="translate(0 0.591)"/><path class="i" d="M4.023,2.012A2.012,2.012,0,1,1,2.011,0,2.011,2.011,0,0,1,4.023,2.012Z" transform="translate(44.903 0)"/></g></g></g><text class="j" transform="matrix(0.978, 0.208, -0.208, 0.978, 1202.929, 240.789)"><tspan x="-4.002" y="0">8:30</tspan></text><g transform="matrix(0.978, 0.208, -0.208, 0.978, 1324.745, 264.228)"><rect class="k" width="1.667" height="2.727" transform="translate(0 3.371)"/><rect class="k" width="1.667" height="3.826" transform="translate(2.386 2.273)"/><rect class="k" width="1.667" height="4.886" transform="translate(4.773 1.212)"/><rect class="k" width="1.667" height="6.098" transform="translate(7.159 0)"/></g><g transform="matrix(0.978, 0.208, -0.208, 0.978, 1335.829, 266.584)"><path class="k" d="M1.122,3.1a5.3,5.3,0,0,1,7.419,0L9.663,1.979A6.888,6.888,0,0,0,0,1.979Z"/><path class="k" d="M1.122,2.482a3.182,3.182,0,0,1,4.424,0L6.668,1.362A4.762,4.762,0,0,0,0,1.362Z" transform="translate(1.497 2.115)"/><path class="k" d="M1.126,1.866a1.083,1.083,0,0,1,.713-.279,1.077,1.077,0,0,1,.711.279L3.678.74A2.656,2.656,0,0,0,0,.74Z" transform="translate(2.993 4.232)"/></g><g transform="matrix(0.978, 0.208, -0.208, 0.978, 1347.415, 269.802)"><rect class="k" width="10.606" height="4.621" rx="0.222"/><rect class="k" width="0.852" height="1.989" rx="0.222" transform="translate(10.852 1.316)"/></g><path class="k" d="M2.275,1.138A1.137,1.137,0,1,1,1.137,0,1.138,1.138,0,0,1,2.275,1.138Z" transform="matrix(0.978, 0.208, -0.208, 0.978, 1381.402, 366.002)"/><path class="k" d="M2.275,1.138A1.137,1.137,0,1,1,1.137,0,1.138,1.138,0,0,1,2.275,1.138Z" transform="matrix(0.978, 0.208, -0.208, 0.978, 1386.128, 367.007)"/><path class="g" d="M96.122,18.005H9.573C4.286,18.005,0,13.975,0,9H0C0,4.031,4.286,0,9.573,0H96.122c5.287,0,9.573,4.031,9.573,9h0C105.7,13.975,101.409,18.005,96.122,18.005Z" transform="matrix(0.978, 0.208, -0.208, 0.978, 1159.469, 544.343)"/><text class="l" transform="translate(1208.203 566.006) rotate(11)"><tspan x="-33.094" y="0">יתוא ריכהל ואוב</tspan></text><g transform="translate(564.668 -2285.098) rotate(7)"><g transform="matrix(0.999, -0.052, 0.052, 0.999, 900.708, 2452.466)"><rect class="m" width="47.736" height="11.276" rx="4.517" transform="matrix(0.978, 0.208, -0.208, 0.978, 89.826, 37.011)"/><path class="n" d="M85.408,0h0a85.408,85.408,0,0,1,85.408,85.408v17.617a33.559,33.559,0,0,1-33.559,33.559H33.559A33.559,33.559,0,0,1,0,103.024V85.408A85.408,85.408,0,0,1,85.408,0Z" transform="matrix(0.978, 0.208, -0.208, 0.978, 28.397, 35.221)"/><path class="m" d="M13.979,6.99A6.989,6.989,0,1,1,6.99,0,6.989,6.989,0,0,1,13.979,6.99Z" transform="matrix(0.978, 0.208, -0.208, 0.978, 114.949, 0)"/><g transform="translate(60.219 92.422)"><path class="o" d="M.023,0V1.232C.009.831,0,.413,0,0Z" transform="matrix(0.978, 0.208, -0.208, 0.978, 53.889, 45.156)"/><g transform="translate(27.839 7.795)"><ellipse class="p" cx="19.329" cy="19.329" rx="19.329" ry="19.329" transform="matrix(0.978, 0.208, -0.208, 0.978, 8.037, 0)"/><g transform="matrix(0.978, 0.208, -0.208, 0.978, 13.95, 9.104)"><ellipse class="q" cx="11.653" cy="11.653" rx="11.653" ry="11.653" transform="translate(0 0)"/></g></g><g transform="translate(0 0)"><ellipse class="p" cx="19.329" cy="19.329" rx="19.329" ry="19.329" transform="matrix(0.978, 0.208, -0.208, 0.978, 8.037, 0)"/><g transform="matrix(0.978, 0.208, -0.208, 0.978, 13.95, 9.104)"><ellipse class="q" cx="11.653" cy="11.653" rx="11.653" ry="11.653" transform="translate(0 0)"/></g></g><g transform="translate(46.782 32.667)"><g transform="matrix(0.978, 0.208, -0.208, 0.978, 2.27, 1.398)"><ellipse class="r" cx="0.936" cy="0.936" rx="0.936" ry="0.936" transform="translate(0 0)"/></g><g transform="matrix(0.978, 0.208, -0.208, 0.978, 0.195, 0)"><path class="r" d="M.936.468A.468.468,0,1,1,.468,0,.468.468,0,0,1,.936.468Z" transform="translate(0 0)"/></g></g><g transform="translate(18.938 27.095)"><g transform="matrix(0.978, 0.208, -0.208, 0.978, 2.275, 1.401)"><ellipse class="r" cx="0.938" cy="0.938" rx="0.938" ry="0.938" transform="translate(0 0)"/></g><g transform="matrix(0.978, 0.208, -0.208, 0.978, 0.195, 0)"><path class="r" d="M.938.469A.469.469,0,1,1,.469,0,.469.469,0,0,1,.938.469Z" transform="translate(0 0)"/></g></g><g transform="translate(8.24 7.962)"><g transform="matrix(0.978, 0.208, -0.208, 0.978, 5.702, 0)"><path class="s" d="M26.176,13.732a16.173,16.173,0,0,1-1.006,5.936,12.214,12.214,0,0,1-2.751,4.286,11.286,11.286,0,0,1-4.154,2.6,15.11,15.11,0,0,1-5.178.872,14.724,14.724,0,0,1-5.081-.872,11.68,11.68,0,0,1-4.172-2.6,12.136,12.136,0,0,1-2.806-4.286A15.9,15.9,0,0,1,0,13.732,15.405,15.405,0,0,1,1.065,7.8,12.634,12.634,0,0,1,3.931,3.49,11.788,11.788,0,0,1,8.1.873,14.33,14.33,0,0,1,13.091,0a14.719,14.719,0,0,1,5.081.873A11.57,11.57,0,0,1,22.345,3.49,12.348,12.348,0,0,1,25.152,7.8,15.914,15.914,0,0,1,26.176,13.732Zm-20.067,0a11.946,11.946,0,0,0,.474,3.49A7.947,7.947,0,0,0,7.949,19.9a6.03,6.03,0,0,0,2.181,1.727,7.469,7.469,0,0,0,5.9,0,6.009,6.009,0,0,0,2.2-1.727,7.974,7.974,0,0,0,1.365-2.674,11.946,11.946,0,0,0,.474-3.49,12.136,12.136,0,0,0-.474-3.509A7.991,7.991,0,0,0,18.229,7.53a6.016,6.016,0,0,0-2.2-1.726,6.92,6.92,0,0,0-2.94-.607,6.7,6.7,0,0,0-2.959.626A6.234,6.234,0,0,0,7.949,7.567,7.942,7.942,0,0,0,6.583,10.26a11.96,11.96,0,0,0-.473,3.471Z" transform="translate(0 0)"/></g><path class="s" d="M25.152,7.8a12.331,12.331,0,0,0-2.806-4.3A11.582,11.582,0,0,0,18.173.872,14.721,14.721,0,0,0,13.089,0,14.325,14.325,0,0,0,8.1.872,11.782,11.782,0,0,0,3.929,3.491,12.612,12.612,0,0,0,1.066,7.8,15.372,15.372,0,0,0,0,13.731V30.242c0,1.28,1.8,2.109.979,2.463A1.837,1.837,0,0,0,0,34.459v6.778h0c0,.017,0,.034,0,.051a.431.431,0,0,0,.862,0c0-.018,0-.034,0-.051h0V36.532a.868.868,0,0,1,.879-.852h.025a.869.869,0,0,1,.879.852v4.705h0a.368.368,0,0,0,0,.051.43.43,0,0,0,.86.006v-.006c0-.017,0-.034,0-.051h0V36.532a.859.859,0,0,1,.861-.852h.023a.859.859,0,0,1,.86.852v4.705h.008c0,.018,0,.034,0,.051a.431.431,0,0,0,.862,0v0a.368.368,0,0,0,0-.051h0V34.459a1.841,1.841,0,0,0-.979-1.753c-.817-.357.979-1.185.979-2.463V25.676a11.957,11.957,0,0,0,1.887.879,14.758,14.758,0,0,0,5.081.872,15.133,15.133,0,0,0,5.179-.872,11.293,11.293,0,0,0,4.154-2.6A12.224,12.224,0,0,0,25.17,19.67a16.158,16.158,0,0,0,1.007-5.937A15.91,15.91,0,0,0,25.152,7.8Zm-5.558,9.426A7.958,7.958,0,0,1,18.23,19.9a6.005,6.005,0,0,1-2.2,1.727,7.462,7.462,0,0,1-5.9,0A6.025,6.025,0,0,1,7.95,19.9a7.947,7.947,0,0,1-1.366-2.674,11.517,11.517,0,0,1-.465-2.973c-.006-.169-.01-.344-.01-.517a11.974,11.974,0,0,1,.474-3.47A7.923,7.923,0,0,1,7.95,7.569a6.207,6.207,0,0,1,2.181-1.746A6.671,6.671,0,0,1,13.089,5.2a6.918,6.918,0,0,1,2.942.608,6.011,6.011,0,0,1,2.2,1.725,7.974,7.974,0,0,1,1.364,2.695,12.145,12.145,0,0,1,.476,3.507,11.979,11.979,0,0,1-.476,3.491Z" transform="matrix(0.978, 0.208, -0.208, 0.978, 33.582, 5.926)"/></g><g transform="matrix(0.978, 0.208, -0.208, 0.978, 52.682, 25.613)"><path class="r" d="M4.267,2.133A2.133,2.133,0,1,1,2.133,0,2.134,2.134,0,0,1,4.267,2.133Z" transform="translate(0 0)"/></g><g transform="matrix(0.978, 0.208, -0.208, 0.978, 24.843, 18.931)"><path class="r" d="M4.267,2.133A2.133,2.133,0,1,1,2.133,0,2.134,2.134,0,0,1,4.267,2.133Z" transform="translate(0 0)"/></g><path class="t" d="M30.7,26.787c-.779.55-6.213-10.518-20.8-20.116C4.773,3.3-.289.893.013.194S6.018.8,10.582,2.921C25.122,9.667,31.624,26.133,30.7,26.787Z" transform="translate(69.501 7.206) rotate(11)"/></g></g><g transform="matrix(0.999, -0.052, 0.052, 0.999, 920.474, 2439.046)"><rect class="m" width="47.736" height="11.276" rx="4.517" transform="matrix(0.978, 0.208, -0.208, 0.978, 69.385, 49.378)"/><path class="m" d="M13.979,6.99A6.989,6.989,0,1,1,6.99,0,6.989,6.989,0,0,1,13.979,6.99Z" transform="matrix(0.978, 0.208, -0.208, 0.978, 94.507, 12.367)"/><g transform="translate(0 0)"><path class="o" d="M.023,0V1.232C.009.831,0,.413,0,0Z" transform="matrix(0.978, 0.208, -0.208, 0.978, 93.666, 149.945)"/><g transform="matrix(0.978, 0.208, -0.208, 0.978, 37.431, 0)"><rect class="u" width="47.736" height="11.276" rx="4.517" transform="translate(42.603 41.425)"/><path class="g" d="M125.011,49.662h0a16.477,16.477,0,0,1-7.286,1.684H15.218a16.478,16.478,0,0,1-7.287-1.684h0C2.442,46.948-.657,41.468.118,35.845l.057-.409C2.8,16.4,20.046,1.757,41.189.656c8.944-.464,18.332-.7,28.125-.648Q80.819.075,91.537.645c21.221,1.095,38.594,15.676,41.23,34.788l.057.412C133.6,41.468,130.5,46.948,125.011,49.662Z" transform="translate(0 89.807)"/><path class="u" d="M13.979,6.99A6.989,6.989,0,1,1,6.99,0,6.989,6.989,0,0,1,13.979,6.99Z" transform="translate(59.482 0)"/><path class="t" d="M18.965,11.6c.092,3.264-2.571,7.166-5.622,7.5-2.861.313-5.145-2.609-7.5-5.622C3.521,10.5-1.556,2.876.466.718,3.132-2.129,18.745,3.9,18.965,11.6Z" transform="translate(105.628 70.549)"/><ellipse class="v" cx="2.429" cy="2.429" rx="2.429" ry="2.429" transform="translate(97.301 65.769)"/><path class="r" d="M33.927,3.325a3.945,3.945,0,0,1-3.583,3.458L4.738,9.251A3.944,3.944,0,0,1,.561,6.544,17.129,17.129,0,0,1,.01,4.1a.849.849,0,0,1,.172-.653.86.86,0,0,1,.592-.325L33.078,0a.841.841,0,0,1,.922.8A17.208,17.208,0,0,1,33.927,3.325Z" transform="translate(56.664 161.373)"/><path class="w" d="M33.263,0A17.1,17.1,0,0,1,17.89,15.25,17.072,17.072,0,0,1,0,3.528,3.957,3.957,0,0,0,4.071,5.922L29.684,3.457A3.952,3.952,0,0,0,33.263,0Z" transform="translate(57.33 164.699)"/><line class="u" x1="0.154" y2="28.39" transform="translate(65.763 13.714)"/></g><g transform="translate(67.617 112.584)"><ellipse class="p" cx="19.329" cy="19.329" rx="19.329" ry="19.329" transform="matrix(0.978, 0.208, -0.208, 0.978, 8.037, 0)"/><g transform="matrix(0.978, 0.208, -0.208, 0.978, 13.95, 9.104)"><ellipse class="q" cx="11.653" cy="11.653" rx="11.653" ry="11.653" transform="translate(0 0)"/></g></g><g transform="translate(39.777 104.789)"><ellipse class="p" cx="19.329" cy="19.329" rx="19.329" ry="19.329" transform="matrix(0.978, 0.208, -0.208, 0.978, 8.037, 0)"/><g transform="matrix(0.978, 0.208, -0.208, 0.978, 13.95, 9.104)"><ellipse class="q" cx="11.653" cy="11.653" rx="11.653" ry="11.653" transform="translate(0 0)"/></g></g><g transform="translate(86.559 137.456)"><g transform="matrix(0.978, 0.208, -0.208, 0.978, 2.27, 1.398)"><ellipse class="r" cx="0.936" cy="0.936" rx="0.936" ry="0.936" transform="translate(0 0)"/></g><g transform="matrix(0.978, 0.208, -0.208, 0.978, 0.195, 0)"><path class="r" d="M.936.468A.468.468,0,1,1,.468,0,.468.468,0,0,1,.936.468Z" transform="translate(0 0)"/></g></g><g transform="translate(58.715 131.884)"><g transform="matrix(0.978, 0.208, -0.208, 0.978, 2.275, 1.401)"><ellipse class="r" cx="0.938" cy="0.938" rx="0.938" ry="0.938" transform="translate(0 0)"/></g><g transform="matrix(0.978, 0.208, -0.208, 0.978, 0.195, 0)"><path class="r" d="M.938.469A.469.469,0,1,1,.469,0,.469.469,0,0,1,.938.469Z" transform="translate(0 0)"/></g></g><g transform="translate(48.017 112.75)"><g transform="matrix(0.978, 0.208, -0.208, 0.978, 5.702, 0)"><path class="s" d="M26.176,13.732a16.173,16.173,0,0,1-1.006,5.936,12.214,12.214,0,0,1-2.751,4.286,11.286,11.286,0,0,1-4.154,2.6,15.11,15.11,0,0,1-5.178.872,14.724,14.724,0,0,1-5.081-.872,11.68,11.68,0,0,1-4.172-2.6,12.136,12.136,0,0,1-2.806-4.286A15.9,15.9,0,0,1,0,13.732,15.405,15.405,0,0,1,1.065,7.8,12.634,12.634,0,0,1,3.931,3.49,11.788,11.788,0,0,1,8.1.873,14.33,14.33,0,0,1,13.091,0a14.719,14.719,0,0,1,5.081.873A11.57,11.57,0,0,1,22.345,3.49,12.348,12.348,0,0,1,25.152,7.8,15.914,15.914,0,0,1,26.176,13.732Zm-20.067,0a11.946,11.946,0,0,0,.474,3.49A7.947,7.947,0,0,0,7.949,19.9a6.03,6.03,0,0,0,2.181,1.727,7.469,7.469,0,0,0,5.9,0,6.009,6.009,0,0,0,2.2-1.727,7.974,7.974,0,0,0,1.365-2.674,11.946,11.946,0,0,0,.474-3.49,12.136,12.136,0,0,0-.474-3.509A7.991,7.991,0,0,0,18.229,7.53a6.016,6.016,0,0,0-2.2-1.726,6.92,6.92,0,0,0-2.94-.607,6.7,6.7,0,0,0-2.959.626A6.234,6.234,0,0,0,7.949,7.567,7.942,7.942,0,0,0,6.583,10.26a11.96,11.96,0,0,0-.473,3.471Z" transform="translate(0 0)"/></g><path class="s" d="M25.152,7.8a12.331,12.331,0,0,0-2.806-4.3A11.582,11.582,0,0,0,18.173.872,14.721,14.721,0,0,0,13.089,0,14.325,14.325,0,0,0,8.1.872,11.782,11.782,0,0,0,3.929,3.491,12.612,12.612,0,0,0,1.066,7.8,15.372,15.372,0,0,0,0,13.731V30.242c0,1.28,1.8,2.109.979,2.463A1.837,1.837,0,0,0,0,34.459v6.778h0c0,.017,0,.034,0,.051a.431.431,0,0,0,.862,0c0-.018,0-.034,0-.051h0V36.532a.868.868,0,0,1,.879-.852h.025a.869.869,0,0,1,.879.852v4.705h0a.368.368,0,0,0,0,.051.43.43,0,0,0,.86.006v-.006c0-.017,0-.034,0-.051h0V36.532a.859.859,0,0,1,.861-.852h.023a.859.859,0,0,1,.86.852v4.705h.008c0,.018,0,.034,0,.051a.431.431,0,0,0,.862,0v0a.368.368,0,0,0,0-.051h0V34.459a1.841,1.841,0,0,0-.979-1.753c-.817-.357.979-1.185.979-2.463V25.676a11.957,11.957,0,0,0,1.887.879,14.758,14.758,0,0,0,5.081.872,15.133,15.133,0,0,0,5.179-.872,11.293,11.293,0,0,0,4.154-2.6A12.224,12.224,0,0,0,25.17,19.67a16.158,16.158,0,0,0,1.007-5.937A15.91,15.91,0,0,0,25.152,7.8Zm-5.558,9.426A7.958,7.958,0,0,1,18.23,19.9a6.005,6.005,0,0,1-2.2,1.727,7.462,7.462,0,0,1-5.9,0A6.025,6.025,0,0,1,7.95,19.9a7.947,7.947,0,0,1-1.366-2.674,11.517,11.517,0,0,1-.465-2.973c-.006-.169-.01-.344-.01-.517a11.974,11.974,0,0,1,.474-3.47A7.923,7.923,0,0,1,7.95,7.569a6.207,6.207,0,0,1,2.181-1.746A6.671,6.671,0,0,1,13.089,5.2a6.918,6.918,0,0,1,2.942.608,6.011,6.011,0,0,1,2.2,1.725,7.974,7.974,0,0,1,1.364,2.695,12.145,12.145,0,0,1,.476,3.507,11.979,11.979,0,0,1-.476,3.491Z" transform="matrix(0.978, 0.208, -0.208, 0.978, 33.582, 5.926)"/></g><g transform="matrix(0.978, 0.208, -0.208, 0.978, 92.459, 130.401)"><path class="r" d="M4.267,2.133A2.133,2.133,0,1,1,2.133,0,2.134,2.134,0,0,1,4.267,2.133Z" transform="translate(0 0)"/></g><g transform="matrix(0.978, 0.208, -0.208, 0.978, 64.62, 123.72)"><path class="r" d="M4.267,2.133A2.133,2.133,0,1,1,2.133,0,2.134,2.134,0,0,1,4.267,2.133Z" transform="translate(0 0)"/></g><path class="t" d="M30.7,26.787c-.779.55-6.213-10.518-20.8-20.116C4.773,3.3-.289.893.013.194S6.018.8,10.582,2.921C25.122,9.667,31.624,26.133,30.7,26.787Z" transform="translate(109.278 111.995) rotate(11)"/></g></g></g><path class="x" d="M2.864,75.742c-.866-46-7.089-55.1,2.09-66.04C6.008,8.445,11.392,2.027,20.247.389a25.738,25.738,0,0,1,16.491,2.67c18.409,10.43,12.945,55.64.821,84.177-2.645,6.223-9.737,22.916-18.382,22.517-3.539-.162-6.152-3.139-7.985-5.286C3.085,94.973,2.995,82.677,2.864,75.742Z" transform="translate(1324.008 449.194)"/><path class="y" d="M18.54,94.86c-1.77,2.745-3.63,5.383-5.631,7.968-.636-.654-1.2-1.309-1.718-1.911-8.11-9.493-8.2-21.781-8.323-28.723-.868-46-7.1-55.088,2.09-66.033A28.708,28.708,0,0,1,12.1,0C3.029,10.908,9.21,20.08,10.077,65.944c.123,6.94.229,19.23,8.322,28.738A.7.7,0,0,1,18.54,94.86Z" transform="translate(1316.794 458.987)"/><path class="z" d="M7.169,32.475c-.26-4.941-1.188-8.577-3.042-15.849C1.7,7.114-1.34,2.477.636.642,1.922-.555,4.455.255,5.029.436c8.695,2.774,11.386,19.086,11.012,29.3C15.812,35.981,14.287,42.97,12,43.278a2.6,2.6,0,0,1-1.9-.567C7.539,40.452,7.368,36.232,7.169,32.475Z" transform="translate(1354.124 454.156)"/><path class="s" d="M3.609,1.8A1.8,1.8,0,1,1,1.8,0,1.806,1.806,0,0,1,3.609,1.8Z" transform="translate(1363.655 502.271)"/></g></svg>