<svg xmlns="http://www.w3.org/2000/svg" width="38" height="38" viewBox="0 0 38 38"><defs><style>.a{fill:#080a41;}</style></defs><g transform="translate(6 -2244)"><path class="a" d="M13,2244a19,19,0,1,0,19,19,19,19,0,0,0-19-19Zm-5.521,28.723H2.851V2258.8H7.479ZM5.165,2256.9h-.03a2.412,2.412,0,1,1,.061-4.81,2.413,2.413,0,1,1-.031,4.81Zm19,15.823H19.537v-7.448c0-1.872-.67-3.148-2.344-3.148a2.533,2.533,0,0,0-2.374,1.692,3.169,3.169,0,0,0-.152,1.129v7.774H10.04s.061-12.615,0-13.921h4.627v1.971a4.594,4.594,0,0,1,4.17-2.3c3.044,0,5.327,1.99,5.327,6.266Zm0,0"/></g></svg>