<svg xmlns="http://www.w3.org/2000/svg" xmlns:xlink="http://www.w3.org/1999/xlink" width="93.154" height="69.875" viewBox="0 0 93.154 69.875"><defs><style>.a{fill:url(#a);}</style><linearGradient id="a" x1="0.192" y1="-0.074" x2="0.82" y2="0.749" gradientUnits="objectBoundingBox"><stop offset="0" stop-color="#f37955"/><stop offset="1" stop-color="#ea351c"/></linearGradient></defs><g transform="translate(0 0)"><path class="a" d="M448.55,640.577a26.7,26.7,0,0,1-1.713,9.943,20.422,20.422,0,0,1-4.685,7.179,19.284,19.284,0,0,1-7.076,4.352,26.121,26.121,0,0,1-8.822,1.461,25.445,25.445,0,0,1-8.66-1.461,19.95,19.95,0,0,1-7.109-4.352,20.309,20.309,0,0,1-4.782-7.179,26.236,26.236,0,0,1-1.745-9.943,25.4,25.4,0,0,1,1.809-9.943,21.15,21.15,0,0,1,4.879-7.211,20.126,20.126,0,0,1,7.109-4.384,24.794,24.794,0,0,1,8.5-1.461,25.452,25.452,0,0,1,8.66,1.461,19.765,19.765,0,0,1,7.109,4.384,20.658,20.658,0,0,1,4.782,7.211A26.242,26.242,0,0,1,448.55,640.577Zm-34.187,0a19.671,19.671,0,0,0,.808,5.845A13.243,13.243,0,0,0,417.5,650.9a10.254,10.254,0,0,0,3.716,2.891,12.927,12.927,0,0,0,10.049,0,10.194,10.194,0,0,0,3.748-2.891,13.28,13.28,0,0,0,2.327-4.479,19.7,19.7,0,0,0,.808-5.845,20.028,20.028,0,0,0-.808-5.877,13.266,13.266,0,0,0-2.327-4.51,10.216,10.216,0,0,0-3.748-2.891,11.955,11.955,0,0,0-5.009-1.016,11.568,11.568,0,0,0-5.041,1.048,10.589,10.589,0,0,0-3.716,2.922,13.228,13.228,0,0,0-2.326,4.511A19.759,19.759,0,0,0,414.364,640.577Zm81-9.942a20.631,20.631,0,0,0-4.781-7.21,19.788,19.788,0,0,0-7.109-4.387,25.444,25.444,0,0,0-8.661-1.46,24.773,24.773,0,0,0-8.5,1.46,20.134,20.134,0,0,0-7.109,4.387,21.127,21.127,0,0,0-4.878,7.21,25.377,25.377,0,0,0-1.811,9.94V668.23c0,2.142,3.064,3.532,1.669,4.126a3.071,3.071,0,0,0-1.669,2.935v11.353h.007a.816.816,0,0,0-.007.085.735.735,0,0,0,1.469,0,.816.816,0,0,0-.007-.085h.007v-7.881a1.468,1.468,0,0,1,1.5-1.428h.042a1.47,1.47,0,0,1,1.5,1.428v7.881h.007a.636.636,0,0,0-.007.085.733.733,0,0,0,1.466,0,.651.651,0,0,0-.007-.085h.007v-7.881a1.454,1.454,0,0,1,1.469-1.428H460a1.452,1.452,0,0,1,1.466,1.428v7.881h.013a.814.814,0,0,0-.006.085.734.734,0,0,0,1.469,0,.668.668,0,0,0-.007-.085h.007V675.292a3.071,3.071,0,0,0-1.669-2.935c-1.394-.594,1.669-1.984,1.669-4.126v-7.648a20.441,20.441,0,0,0,3.215,1.469,25.511,25.511,0,0,0,8.659,1.46,26.191,26.191,0,0,0,8.823-1.46,19.275,19.275,0,0,0,7.077-4.354,20.453,20.453,0,0,0,4.684-7.178,26.66,26.66,0,0,0,1.714-9.943A26.243,26.243,0,0,0,495.366,630.636ZM485.9,646.422a13.258,13.258,0,0,1-2.324,4.478,10.2,10.2,0,0,1-3.748,2.891,12.906,12.906,0,0,1-10.05,0,10.224,10.224,0,0,1-3.716-2.891,13.212,13.212,0,0,1-2.327-4.478,18.966,18.966,0,0,1-.791-4.98c-.01-.282-.016-.575-.016-.866a19.732,19.732,0,0,1,.808-5.811,13.192,13.192,0,0,1,2.327-4.509,10.534,10.534,0,0,1,3.716-2.923,11.519,11.519,0,0,1,5.039-1.051,11.933,11.933,0,0,1,5.011,1.018,10.221,10.221,0,0,1,3.748,2.888A13.279,13.279,0,0,1,485.9,634.7a19.993,19.993,0,0,1,.81,5.875A19.678,19.678,0,0,1,485.9,646.422Zm-22.973-5.846c0,.292.007.584.016.866v-.866Z" transform="translate(-403.959 -617.579)"/></g></svg>