<svg xmlns="http://www.w3.org/2000/svg" width="38" height="38" viewBox="0 0 38 38"><defs><style>.a{fill:#080a41;}</style></defs><path class="a" d="M19,0H19A18.988,18.988,0,0,0,3.617,30.136L1.249,37.195l7.3-2.335A19,19,0,1,0,19,0ZM30.06,26.83c-.458,1.294-2.278,2.368-3.729,2.681-.993.211-2.289.38-6.655-1.43-5.584-2.313-9.179-7.987-9.46-8.355s-2.256-3-2.256-5.731A6.066,6.066,0,0,1,9.9,9.372a2.761,2.761,0,0,1,1.943-.682c.235,0,.446.012.637.021.558.024.838.057,1.207.938.458,1.1,1.575,3.831,1.708,4.111a1.131,1.131,0,0,1,.081,1.028,3.283,3.283,0,0,1-.615.872c-.28.323-.546.57-.826.917-.256.3-.546.625-.223,1.183A16.864,16.864,0,0,0,16.9,21.591a13.969,13.969,0,0,0,4.455,2.748,1.2,1.2,0,0,0,1.34-.211,22.988,22.988,0,0,0,1.484-1.966,1.06,1.06,0,0,1,1.363-.413c.513.178,3.228,1.52,3.786,1.8s.926.413,1.062.648A4.732,4.732,0,0,1,30.06,26.83Z"/></svg>