<svg xmlns="http://www.w3.org/2000/svg" xmlns:xlink="http://www.w3.org/1999/xlink" width="162.99" height="162.99" viewBox="0 0 162.99 162.99"><defs><style>.a,.e,.f,.s,.x{fill:none;}.b{opacity:0.2;}.c{clip-path:url(#a);}.d{fill:#415659;}.e,.f{stroke:#415659;}.e,.f,.s,.x{stroke-linecap:round;}.e,.s{stroke-linejoin:round;stroke-width:0.969px;}.f,.x{stroke-miterlimit:10;}.g{fill:#f68f6a;}.h{opacity:0.4;}.i{fill:#080a41;}.j{fill:#f4be92;}.k{fill:#e5a87f;}.l{fill:#dda783;}.m{fill:#fff;}.n{fill:#2c2a3f;}.o{fill:#30336b;}.p{fill:#ef3901;}.q{fill:#d39871;}.r{fill:#ff9671;}.s{stroke:#fff;}.t{fill:#f6e58d;}.u{fill:#f9ca24;}.v{fill:#eb4d4b;}.w{fill:#badc58;}.x{stroke:#ffbe76;}</style><clipPath id="a"><circle class="a" cx="65.948" cy="65.948" r="65.948" transform="translate(0 128.599) rotate(-77.164)"/></clipPath></defs><g class="b" transform="translate(5.089 5.089)"><g transform="translate(0 0)"><g class="c"><circle class="d" cx="65.948" cy="65.948" r="65.948" transform="translate(0 128.599) rotate(-77.164)"/><path class="d" d="M1896.942,715.251,1881.785,698l27.882-32.62S1902.209,704.913,1896.942,715.251Z" transform="translate(-1850.948 -559.882)"/><path class="d" d="M1984.47,565.7c-1.4,13.854-1.06,24.272-9.647,32.516s-11.22,8.358-11.22,8.358l-12.022-7.442s1.718-2.29,2.175-9.846.8-20.036.8-20.036-2.061-4.923,0-8.129-.916-11.678-.916-11.678,1.488-3.524,4.694.984S1985.874,551.844,1984.47,565.7Z" transform="translate(-1891.147 -492.353)"/><path class="d" d="M1965.781,551.883l-.339,32.5s.611,5.939,7.423,5.116S1965.781,551.883,1965.781,551.883Z" transform="translate(-1899.131 -494.515)"/><path class="d" d="M1971.035,625.229s11.168,6.147,8.624,16.434c0,0,9.159-7.93,9.058-13.12a5.3,5.3,0,0,0,3.637-2.317c1.757-2.262-21.327-10.785-21.692-1.282Z" transform="translate(-1902.137 -534.062)"/><path class="d" d="M2025.634,554.552a2.715,2.715,0,0,1,.188,3.81l-9.3,8.777a2.715,2.715,0,0,1-3.794-.407h0a2.715,2.715,0,0,1-.189-3.811l9.3-8.777a2.713,2.713,0,0,1,3.793.408Z" transform="translate(-1925.859 -495.471)"/><path class="d" d="M1980.506,564.927h-8.129a5.5,5.5,0,0,1-5.5-5.5V516.154a5.5,5.5,0,0,1,5.5-5.5h8.129Z" transform="translate(-1899.96 -470.771)"/><path class="d" d="M1999.012,510.658h8.358a5.5,5.5,0,0,1,5.5,5.5v43.278a5.5,5.5,0,0,1-5.5,5.5h-8.358Z" transform="translate(-1918.465 -470.771)"/><rect class="d" width="24.158" height="39.157" transform="translate(68.525 45.84)"/><path class="d" d="M1998.956,623.095a2.605,2.605,0,1,1-2.6-2.548A2.577,2.577,0,0,1,1998.956,623.095Z" transform="translate(-1915.433 -534.062)"/><path class="d" d="M1996.339,518.478a.8.8,0,0,1-.8.8h-19.349a.8.8,0,0,1-.8-.8h0a.8.8,0,0,1,.8-.8h19.349a.8.8,0,0,1,.8.8Z" transform="translate(-1904.859 -474.814)"/><rect class="d" width="17.582" height="4.459" rx="2.23" transform="translate(71.756 77.979)"/><path class="d" d="M1945.268,674.688l-24.844,43.969-2.9-3.406c5.267-10.338,12.725-49.876,12.725-49.876l1.716,1.279Z" transform="translate(-1871.534 -559.882)"/><path class="d" d="M2031.918,557.955l1.258,6.79-1.494,1.411v-7.978Z" transform="translate(-1937.282 -498.012)"/><path class="d" d="M2024.283,577.681a2.715,2.715,0,0,1,.189,3.81l-9.3,8.777a2.715,2.715,0,0,1-3.793-.407h0a2.715,2.715,0,0,1-.189-3.811l9.3-8.777a2.714,2.714,0,0,1,3.793.407Z" transform="translate(-1925.082 -508.793)"/><path class="d" d="M2024.122,596.041a2.715,2.715,0,0,1,.189,3.81l-9.3,8.777a2.715,2.715,0,0,1-3.793-.407h0a2.714,2.714,0,0,1-.19-3.81l9.3-8.778a2.713,2.713,0,0,1,3.793.408Z" transform="translate(-1924.989 -519.367)"/><path class="d" d="M2026.187,616.129c1.1,1.164,1.433,2.635.746,3.284l-6.422,6.063c-.687.649-2.136.232-3.236-.932h0c-1.1-1.165-1.434-2.635-.747-3.285l6.424-6.064c.688-.65,2.136-.232,3.236.934Z" transform="translate(-1928.348 -530.803)"/><path class="d" d="M2030.38,581.224a7.1,7.1,0,0,1-1.275,2.85,15.757,15.757,0,0,1-2.035,2.387c-.368.371-.771.7-1.158,1.052-.408.324-.811.655-1.231.961s-.852.6-1.289.877-.891.535-1.35.779c.382-.356.778-.688,1.172-1.021l1.169-1.007c.766-.684,1.537-1.357,2.26-2.077a26.109,26.109,0,0,0,2.081-2.234A10.621,10.621,0,0,0,2030.38,581.224Z" transform="translate(-1931.73 -511.414)"/><path class="d" d="M2029.832,599.823a4.736,4.736,0,0,1-.558,1.638,11.363,11.363,0,0,1-.924,1.473,21.313,21.313,0,0,1-2.29,2.6c-.424.39-.844.784-1.281,1.158-.449.359-.878.743-1.344,1.08s-.921.687-1.4,1.007-.961.628-1.456.92c.414-.4.844-.778,1.271-1.157l1.278-1.137c.847-.761,1.687-1.524,2.5-2.31s1.6-1.6,2.341-2.451a16.634,16.634,0,0,0,1.041-1.333A6.067,6.067,0,0,0,2029.832,599.823Z" transform="translate(-1930.889 -522.126)"/><path class="d" d="M2030.715,622.384a11.514,11.514,0,0,1-1.193,1.9,16.463,16.463,0,0,1-1.476,1.694,13.97,13.97,0,0,1-1.733,1.442,8.079,8.079,0,0,1-2.01,1.018c.6-.458,1.165-.916,1.718-1.394s1.077-.985,1.6-1.5C2028.66,624.516,2029.655,623.444,2030.715,622.384Z" transform="translate(-1933.032 -535.12)"/><path class="d" d="M1979.164,644.342s-5.387,11.494-5,16.135l5.9,2.924S1982.123,645.718,1979.164,644.342Z" transform="translate(-1904.145 -547.767)"/><path class="d" d="M2011.644,665.387c-6.8.415-13.541,6.216-16.97,9.653-1.3-2.539-3.333-6.188-4.613-6.829-1.823-.91-13.889-15.2-13.742-22.819a5.123,5.123,0,0,1,.409-2.015s.286-1.505.833-3.309a1.437,1.437,0,0,1,.046-.15c.75-2.451,1.981-5.382,3.621-5.825V610.213a3.669,3.669,0,0,1,3.721-3.611,3.8,3.8,0,0,1,2.632,1.059,3.537,3.537,0,0,1,1.093,2.552v16.505a1.446,1.446,0,0,1,.009-.167,2.415,2.415,0,0,1,1.92-1.811h0a4.574,4.574,0,0,1,1.234-.167,4.066,4.066,0,0,1,2.213.611.114.114,0,0,1,.028.014,1.88,1.88,0,0,1,.925,1.521V630.5c0-1.187,1.414-2.146,3.17-2.146a4.059,4.059,0,0,1,2.238.626,1.887,1.887,0,0,1,.928,1.521v5.114a1.72,1.72,0,0,1,.015-.218c.159-1.086,1.5-1.929,3.151-1.929a4.049,4.049,0,0,1,2.241.626,1.883,1.883,0,0,1,.925,1.521V655.48C2007.675,656.972,2009.767,661.565,2011.644,665.387Z" transform="translate(-1905.395 -526.031)"/><path class="d" d="M2061.561,793.907l-27.216-1.694-6.619-7.456-13.6-27.4s.861-1.038,2.325-2.5v0c3.429-3.438,10.173-9.239,16.97-9.653a11.55,11.55,0,0,1,3.09.21l4.82,11.947Z" transform="translate(-1927.168 -605.841)"/><path class="d" d="M1986.225,671.43c.042,1.282.01,2.55-.037,3.815s-.119,2.525-.186,3.785l-.22,3.77a25.839,25.839,0,0,0,.013,3.774,7.633,7.633,0,0,1-.54-1.854c-.046-.318-.1-.638-.135-.957s-.054-.639-.082-.96a35.166,35.166,0,0,1,.013-3.83c.087-1.271.206-2.539.4-3.8A29.7,29.7,0,0,1,1986.225,671.43Z" transform="translate(-1910.39 -563.369)"/><path class="d" d="M2005.358,660.9a10.465,10.465,0,0,1-.455-1.923,17.11,17.11,0,0,1-.191-1.934,16.827,16.827,0,0,1,.02-1.944,1.006,1.006,0,1,1,.742-.033,16.835,16.835,0,0,1,.19,1.935,17.163,17.163,0,0,1-.021,1.944A10.433,10.433,0,0,1,2005.358,660.9Z" transform="translate(-1921.738 -552.834)"/><path class="d" d="M2019.748,661.563a3.547,3.547,0,0,1,.373,1.046,5.385,5.385,0,0,1,0,2.092.59.59,0,1,1-.749,0,5.236,5.236,0,0,1-.1-1.046,5.345,5.345,0,0,1,.1-1.046A3.554,3.554,0,0,1,2019.748,661.563Z" transform="translate(-1930.134 -557.686)"/><path class="d" d="M2034.888,674.5a4.365,4.365,0,0,1,.422,1.028,7.3,7.3,0,0,1,.206,1.014,9.737,9.737,0,0,1,.083,1.009c.015.344,0,.664.044,1.06a1.712,1.712,0,0,1-.77-.875,3.773,3.773,0,0,1-.3-1.067,4.39,4.39,0,0,1-.006-1.087A3.1,3.1,0,0,1,2034.888,674.5Z" transform="translate(-1938.925 -565.139)"/><rect class="d" width="9.422" height="1.339" transform="translate(80.209 56.864)"/><rect class="d" width="6.82" height="1.339" transform="translate(82.811 58.868)"/><rect class="d" width="5.48" height="5.48" rx="2.74" transform="translate(71.89 55.796)"/><path class="d" d="M1982.883,550.3l-1.6,2.565a2.212,2.212,0,0,0,3.207,0Z" transform="translate(-1908.252 -493.604)"/><path class="e" d="M1980.836,557.35a2.676,2.676,0,0,0,3.583,0" transform="translate(-1907.997 -497.664)"/><rect class="d" width="9.422" height="1.339" transform="translate(80.209 70.269)"/><rect class="d" width="6.82" height="1.339" transform="translate(82.811 72.273)"/><rect class="d" width="5.48" height="5.48" rx="2.74" transform="translate(71.89 69.2)"/><rect class="d" width="9.422" height="1.339" transform="translate(80.209 63.33)"/><rect class="d" width="6.82" height="1.339" transform="translate(82.811 65.334)"/><rect class="d" width="5.48" height="5.48" rx="2.74" transform="translate(71.89 62.261)"/><rect class="d" width="9.422" height="1.339" transform="translate(80.209 50.399)"/><rect class="d" width="6.82" height="1.339" transform="translate(82.811 52.403)"/><rect class="d" width="5.48" height="5.48" rx="2.74" transform="translate(71.89 49.33)"/><path class="d" d="M1984.4,540.932h-1.334l-.309-2.523h1.951Z" transform="translate(-1909.105 -486.755)"/><path class="d" d="M1984.642,537.456H1982.3l.1-.434h2.133Z" transform="translate(-1908.842 -485.956)"/><path class="d" d="M1985.281,535.369l-.22,0,.341-.88a.1.1,0,0,1,.1-.066h.473v.206h-.4Z" transform="translate(-1910.43 -484.457)"/><path class="d" d="M1983.039,582.091a1.892,1.892,0,0,0,.755-.346.66.66,0,0,0,.227-.379.575.575,0,0,0-.01-.383l-.006-.013-.037-.018a.071.071,0,0,0-.1.055.612.612,0,0,1-.156.368c-.264.276-.693.086-.959.4a.463.463,0,0,0-.125.316.459.459,0,0,0,.005.046C1982.644,582.188,1983.005,582.1,1983.039,582.091Z" transform="translate(-1909.029 -511.254)"/><path class="d" d="M1982.8,584.137l.021.029a.766.766,0,0,0,.082.027.8.8,0,0,1-.082-.027Z" transform="translate(-1909.127 -513.092)"/><path class="d" d="M1982.75,583.325c.522-.042,1.146-.092,1.285-.389a.469.469,0,0,0,0-.331.455.455,0,0,0-.083-.137l.023-.03a1.431,1.431,0,0,1-.512.441c-.457.227-.945.129-1.228.408a.351.351,0,0,0-.116.211c0,.008,0,.015,0,.023A.988.988,0,0,1,1982.75,583.325Z" transform="translate(-1908.734 -512.113)"/><path class="d" d="M1982.352,585.6l-.005-.006Z" transform="translate(-1908.867 -513.931)"/><path class="d" d="M1983.936,588.4h-1.542a.233.233,0,0,1-.226-.176l-.4-1.566a.078.078,0,0,1,.075-.1h2.635a.078.078,0,0,1,.075.1l-.4,1.566a.233.233,0,0,1-.226.176Zm0,0" transform="translate(-1908.535 -514.487)"/><path class="d" d="M1984.329,586.716h-2.7a.182.182,0,1,1,0-.365h2.7a.182.182,0,1,1,0,.365Zm0,0" transform="translate(-1908.348 -514.367)"/><path class="d" d="M1984.63,588.587h-2.4l.1.4h2.2Zm0,0" transform="translate(-1908.8 -515.655)"/><path class="d" d="M1984.671,584.24a.514.514,0,0,0-.28-.279c-.167.268-.763.317-1.266.357a.911.911,0,0,0-.671.236.532.532,0,0,0-.076.123l-.006-.006a.173.173,0,0,0-.008.045c.235-.012.627-.024,1.024-.017.752.013,1.163.081,1.283-.13A.435.435,0,0,0,1984.671,584.24Z" transform="translate(-1908.878 -512.991)"/><rect class="d" width="4.008" height="0.857" rx="0.428" transform="translate(72.732 65.615)"/><path class="d" d="M1980.6,571.061l-.122.487a.089.089,0,0,0,.121.1l1.161-.5h.651l.795.621a.088.088,0,0,0,.109,0l.784-.62h.154l.223.336a.027.027,0,0,0,.048-.022l-.1-.374Z" transform="translate(-1907.789 -505.561)"/><rect class="d" width="4.008" height="0.857" rx="0.428" transform="translate(72.732 64.758)"/><path class="d" d="M1980.6,568.454s-.315.313-.27.426.154.011.349-.042.3-.055.334.057-.051.18.091.224.205-.169.354-.163.211.022.278.094.084.1.189.106.119-.21.259-.265.125-.023.251.021a.349.349,0,0,0,.342-.086.151.151,0,0,1,.263.048c.056.135.129.392.226.423s.219.047.28-.1.038-.4.176-.4.109.075.187.159a.208.208,0,0,0,.254.01c.033-.031-.029-.187.073-.165.3.062.2-.112.075-.36S1980.6,568.454,1980.6,568.454Z" transform="translate(-1907.704 -503.992)"/><path class="d" d="M1984.4,566.742h-3.622a.193.193,0,0,1-.193-.193h0a1.338,1.338,0,0,1,1.338-1.338h1.331a1.339,1.339,0,0,1,1.339,1.338h0A.193.193,0,0,1,1984.4,566.742Z" transform="translate(-1907.852 -502.191)"/><line class="f" x1="0.167" y2="0.145" transform="translate(73.635 63.123)"/><line class="f" x1="0.167" y2="0.145" transform="translate(74.544 63.408)"/><line class="f" x2="0.039" y2="0.192" transform="translate(74.299 63.147)"/><line class="f" x1="0.048" y2="0.19" transform="translate(75.079 63.173)"/><line class="f" x2="0.088" y2="0.15" transform="translate(75.735 63.168)"/><line class="f" x2="0.088" y2="0.15" transform="translate(73.892 63.406)"/><line class="f" x2="0.088" y2="0.15" transform="translate(75.444 63.431)"/><path class="d" d="M1888.3,706.611l-15.157-17.256,27.882-32.62S1893.569,696.273,1888.3,706.611Z" transform="translate(-1845.972 -554.905)"/><path class="d" d="M1975.83,557.057c-1.4,13.854-1.06,24.272-9.647,32.516s-11.22,8.358-11.22,8.358l-12.022-7.442s1.718-2.29,2.176-9.846.8-20.036.8-20.036-2.061-4.923,0-8.129S1945,540.8,1945,540.8s1.489-3.524,4.694.984S1977.233,543.2,1975.83,557.057Z" transform="translate(-1886.171 -487.376)"/><path class="d" d="M1957.141,543.243l-.339,32.5s.611,5.939,7.423,5.116S1957.141,543.243,1957.141,543.243Z" transform="translate(-1894.154 -489.539)"/><path class="d" d="M1962.4,616.589s11.169,6.147,8.624,16.434c0,0,9.159-7.93,9.058-13.12a5.3,5.3,0,0,0,3.636-2.318c1.757-2.262-21.326-10.785-21.692-1.282Z" transform="translate(-1897.161 -529.086)"/><path class="d" d="M2016.993,545.912a2.714,2.714,0,0,1,.189,3.81l-9.3,8.777a2.715,2.715,0,0,1-3.794-.407h0a2.714,2.714,0,0,1-.189-3.81l9.3-8.777a2.713,2.713,0,0,1,3.793.408Z" transform="translate(-1920.883 -490.495)"/><path class="d" d="M1971.867,556.287h-8.129a5.5,5.5,0,0,1-5.5-5.5V507.514a5.5,5.5,0,0,1,5.5-5.5h8.129Z" transform="translate(-1894.984 -465.795)"/><path class="d" d="M1990.372,502.018h8.358a5.5,5.5,0,0,1,5.5,5.5v43.278a5.5,5.5,0,0,1-5.5,5.5h-8.358Z" transform="translate(-1913.489 -465.795)"/><rect class="d" width="24.158" height="39.157" transform="translate(64.861 42.176)"/><path class="d" d="M1990.316,614.455a2.605,2.605,0,1,1-2.6-2.548A2.577,2.577,0,0,1,1990.316,614.455Z" transform="translate(-1910.457 -529.086)"/><path class="d" d="M1987.7,509.838a.8.8,0,0,1-.8.8h-19.349a.8.8,0,0,1-.8-.8h0a.8.8,0,0,1,.8-.8H1986.9a.8.8,0,0,1,.8.8Z" transform="translate(-1899.882 -469.838)"/><rect class="d" width="17.582" height="4.459" rx="2.23" transform="translate(68.092 74.316)"/><path class="d" d="M1936.628,666.048l-24.844,43.969-2.9-3.406c5.267-10.338,12.725-49.875,12.725-49.875l1.716,1.279Z" transform="translate(-1866.558 -554.905)"/><path class="d" d="M2023.278,549.315l1.258,6.79-1.494,1.411v-7.978Z" transform="translate(-1932.306 -493.036)"/><path class="d" d="M2015.643,569.041a2.715,2.715,0,0,1,.189,3.81l-9.3,8.777a2.715,2.715,0,0,1-3.794-.407h0a2.715,2.715,0,0,1-.189-3.811l9.3-8.777a2.714,2.714,0,0,1,3.793.407Z" transform="translate(-1920.105 -503.817)"/><path class="d" d="M2015.482,587.4a2.715,2.715,0,0,1,.189,3.81l-9.3,8.777a2.715,2.715,0,0,1-3.794-.408h0a2.714,2.714,0,0,1-.19-3.81l9.3-8.778a2.713,2.713,0,0,1,3.793.408Z" transform="translate(-1920.012 -514.391)"/><path class="d" d="M2017.547,607.489c1.1,1.164,1.433,2.635.746,3.284l-6.422,6.063c-.687.649-2.136.232-3.236-.932h0c-1.1-1.165-1.434-2.635-.747-3.285l6.424-6.064c.687-.65,2.136-.232,3.236.934Z" transform="translate(-1923.372 -525.827)"/><path class="d" d="M2021.74,572.584a7.1,7.1,0,0,1-1.276,2.85,15.755,15.755,0,0,1-2.034,2.387c-.369.371-.771.7-1.159,1.052-.408.324-.81.655-1.23.961s-.852.6-1.289.877-.891.535-1.35.779c.382-.356.778-.688,1.172-1.021l1.169-1.008c.766-.684,1.537-1.357,2.26-2.077a26.1,26.1,0,0,0,2.081-2.234A10.628,10.628,0,0,0,2021.74,572.584Z" transform="translate(-1926.753 -506.438)"/><path class="d" d="M2021.192,591.183a4.735,4.735,0,0,1-.557,1.638,11.36,11.36,0,0,1-.924,1.473,21.318,21.318,0,0,1-2.29,2.6c-.424.39-.844.784-1.281,1.158-.449.359-.878.743-1.344,1.08s-.92.687-1.4,1.007-.961.628-1.456.92c.414-.4.844-.778,1.271-1.157l1.278-1.137c.847-.761,1.687-1.524,2.5-2.31s1.6-1.6,2.341-2.451a16.585,16.585,0,0,0,1.042-1.333A6.067,6.067,0,0,0,2021.192,591.183Z" transform="translate(-1925.913 -517.15)"/><path class="d" d="M2022.074,613.744a11.494,11.494,0,0,1-1.193,1.9,16.434,16.434,0,0,1-1.476,1.694,13.947,13.947,0,0,1-1.733,1.442,8.08,8.08,0,0,1-2.01,1.018c.6-.458,1.164-.916,1.717-1.394s1.078-.985,1.6-1.5C2020.02,615.877,2021.015,614.8,2022.074,613.744Z" transform="translate(-1928.056 -530.144)"/><path class="d" d="M1970.523,635.7s-5.387,11.494-5,16.135l5.9,2.924S1973.483,637.078,1970.523,635.7Z" transform="translate(-1899.168 -542.791)"/><path class="d" d="M2003,656.747c-6.8.415-13.541,6.216-16.97,9.653-1.3-2.539-3.333-6.188-4.613-6.829-1.823-.91-13.889-15.2-13.742-22.819a5.125,5.125,0,0,1,.409-2.016s.286-1.505.833-3.309a1.437,1.437,0,0,1,.046-.15c.75-2.451,1.981-5.382,3.621-5.825V601.573a3.669,3.669,0,0,1,3.721-3.611,3.8,3.8,0,0,1,2.632,1.059,3.535,3.535,0,0,1,1.093,2.552v16.505a1.446,1.446,0,0,1,.01-.167,2.415,2.415,0,0,1,1.92-1.811h0a4.576,4.576,0,0,1,1.234-.167,4.064,4.064,0,0,1,2.213.611.119.119,0,0,1,.028.014,1.88,1.88,0,0,1,.925,1.521v3.781c0-1.187,1.414-2.146,3.17-2.146a4.058,4.058,0,0,1,2.238.626,1.887,1.887,0,0,1,.928,1.521v5.114a1.767,1.767,0,0,1,.015-.218c.159-1.086,1.5-1.929,3.151-1.929a4.05,4.05,0,0,1,2.241.626,1.883,1.883,0,0,1,.925,1.521V646.84C1999.034,648.332,2001.127,652.925,2003,656.747Z" transform="translate(-1900.419 -521.054)"/><path class="d" d="M2052.921,785.267l-27.215-1.694-6.619-7.456-13.6-27.4s.861-1.038,2.325-2.5v0c3.429-3.438,10.173-9.239,16.97-9.654a11.564,11.564,0,0,1,3.09.21l4.821,11.947Z" transform="translate(-1922.192 -600.865)"/><path class="d" d="M1977.585,662.79c.042,1.282.01,2.55-.037,3.815s-.118,2.525-.186,3.785l-.22,3.77a25.839,25.839,0,0,0,.013,3.774,7.623,7.623,0,0,1-.54-1.854c-.046-.318-.1-.638-.135-.957s-.054-.639-.082-.96a35.043,35.043,0,0,1,.013-3.83c.087-1.271.206-2.539.4-3.8A29.74,29.74,0,0,1,1977.585,662.79Z" transform="translate(-1905.414 -558.392)"/><path class="d" d="M1996.718,652.255a10.47,10.47,0,0,1-.455-1.923,17.058,17.058,0,0,1-.191-1.935,16.771,16.771,0,0,1,.02-1.944,1.006,1.006,0,1,1,.742-.033,16.778,16.778,0,0,1,.19,1.934A17.163,17.163,0,0,1,1997,650.3,10.433,10.433,0,0,1,1996.718,652.255Z" transform="translate(-1916.761 -547.858)"/><path class="d" d="M2011.108,652.923a3.548,3.548,0,0,1,.373,1.046,5.346,5.346,0,0,1,.1,1.046,5.235,5.235,0,0,1-.1,1.046.59.59,0,1,1-.749,0,5.217,5.217,0,0,1-.1-1.046,5.346,5.346,0,0,1,.1-1.046A3.554,3.554,0,0,1,2011.108,652.923Z" transform="translate(-1925.158 -552.709)"/><path class="d" d="M2026.248,665.864a4.35,4.35,0,0,1,.422,1.028,7.305,7.305,0,0,1,.206,1.014,9.738,9.738,0,0,1,.083,1.009c.015.344,0,.664.044,1.06a1.713,1.713,0,0,1-.77-.875,3.772,3.772,0,0,1-.3-1.067,4.379,4.379,0,0,1-.006-1.087A3.092,3.092,0,0,1,2026.248,665.864Z" transform="translate(-1933.949 -560.163)"/><rect class="d" width="9.422" height="1.339" transform="translate(76.545 53.2)"/><rect class="d" width="6.82" height="1.339" transform="translate(79.147 55.204)"/><rect class="d" width="5.48" height="5.48" rx="2.74" transform="translate(68.227 52.132)"/><path class="d" d="M1974.243,541.661l-1.6,2.565a2.212,2.212,0,0,0,3.207,0Z" transform="translate(-1903.276 -488.628)"/><path class="e" d="M1972.2,548.71a2.676,2.676,0,0,0,3.583,0" transform="translate(-1903.021 -492.687)"/><rect class="d" width="9.422" height="1.339" transform="translate(76.545 66.605)"/><rect class="d" width="6.82" height="1.339" transform="translate(79.147 68.609)"/><rect class="d" width="5.48" height="5.48" rx="2.74" transform="translate(68.227 65.536)"/><rect class="d" width="9.422" height="1.339" transform="translate(76.545 59.666)"/><rect class="d" width="6.82" height="1.339" transform="translate(79.147 61.67)"/><rect class="d" width="5.48" height="5.48" rx="2.74" transform="translate(68.227 58.597)"/><rect class="d" width="9.422" height="1.339" transform="translate(76.545 46.735)"/><rect class="d" width="6.82" height="1.339" transform="translate(79.147 48.739)"/><rect class="d" width="5.48" height="5.48" rx="2.74" transform="translate(68.227 45.667)"/><path class="d" d="M1975.762,532.292h-1.334l-.309-2.523h1.951Z" transform="translate(-1904.129 -481.778)"/><path class="d" d="M1976,528.816h-2.339l.1-.434h2.133Z" transform="translate(-1903.865 -480.98)"/><path class="d" d="M1976.641,526.729l-.22,0,.341-.88a.1.1,0,0,1,.1-.066h.473v.206h-.4Z" transform="translate(-1905.454 -479.481)"/><path class="d" d="M1974.4,573.451a1.893,1.893,0,0,0,.755-.346.661.661,0,0,0,.228-.379.578.578,0,0,0-.01-.383l-.007-.013-.037-.018a.071.071,0,0,0-.1.055.613.613,0,0,1-.156.368c-.264.276-.692.086-.959.4a.465.465,0,0,0-.125.316.394.394,0,0,0,.005.046C1974,573.548,1974.365,573.46,1974.4,573.451Z" transform="translate(-1904.053 -506.278)"/><path class="d" d="M1974.159,575.5c.008.011.015.022.021.029a.764.764,0,0,0,.082.027.8.8,0,0,1-.082-.027Z" transform="translate(-1904.151 -508.116)"/><path class="d" d="M1974.109,574.685c.523-.042,1.147-.092,1.285-.389a.469.469,0,0,0,0-.331.459.459,0,0,0-.083-.137l.023-.03a1.436,1.436,0,0,1-.512.441c-.457.227-.945.129-1.228.408a.353.353,0,0,0-.116.211c0,.008,0,.015,0,.023A.989.989,0,0,1,1974.109,574.685Z" transform="translate(-1903.758 -507.137)"/><path class="d" d="M1973.712,576.96l-.005-.006Z" transform="translate(-1903.891 -508.955)"/><path class="d" d="M1975.3,579.758h-1.542a.233.233,0,0,1-.226-.176l-.4-1.566a.078.078,0,0,1,.075-.1h2.635a.078.078,0,0,1,.076.1l-.4,1.566a.232.232,0,0,1-.225.176Zm0,0" transform="translate(-1903.559 -509.511)"/><path class="d" d="M1975.689,578.076h-2.7a.182.182,0,0,1,0-.365h2.7a.182.182,0,0,1,0,.365Zm0,0" transform="translate(-1903.371 -509.391)"/><path class="d" d="M1975.991,579.947h-2.4l.1.4h2.2Zm0,0" transform="translate(-1903.824 -510.678)"/><path class="d" d="M1976.031,575.6a.514.514,0,0,0-.279-.279c-.167.268-.763.317-1.266.357a.913.913,0,0,0-.671.236.538.538,0,0,0-.076.123l-.006-.006a.186.186,0,0,0-.009.045c.235-.012.628-.024,1.025-.017.752.013,1.163.081,1.283-.13A.434.434,0,0,0,1976.031,575.6Z" transform="translate(-1903.901 -508.015)"/><rect class="d" width="4.008" height="0.857" rx="0.428" transform="translate(69.068 61.951)"/><path class="d" d="M1971.959,562.421l-.122.487a.089.089,0,0,0,.121.1l1.161-.5h.651l.795.621a.088.088,0,0,0,.109,0l.783-.62h.155l.223.336a.027.027,0,0,0,.048-.022l-.1-.374Z" transform="translate(-1902.813 -500.584)"/><rect class="d" width="4.008" height="0.857" rx="0.428" transform="translate(69.068 61.094)"/><path class="d" d="M1971.962,559.814s-.315.313-.27.426.154.011.349-.042.3-.055.335.057-.051.18.091.224.205-.169.354-.163.211.022.278.094.084.1.189.106.119-.21.259-.265.124-.023.251.021a.348.348,0,0,0,.342-.086.152.152,0,0,1,.263.048c.055.135.129.392.227.423s.219.047.28-.1.038-.4.176-.4.109.075.187.159a.208.208,0,0,0,.254.01c.033-.031-.028-.187.073-.165.3.061.2-.112.075-.36S1971.962,559.814,1971.962,559.814Z" transform="translate(-1902.728 -499.016)"/><path class="d" d="M1975.759,558.1h-3.622a.193.193,0,0,1-.193-.193h0a1.338,1.338,0,0,1,1.338-1.338h1.331a1.339,1.339,0,0,1,1.339,1.338h0A.193.193,0,0,1,1975.759,558.1Z" transform="translate(-1902.876 -497.215)"/><line class="f" x1="0.167" y2="0.145" transform="translate(69.971 59.459)"/><line class="f" x1="0.167" y2="0.145" transform="translate(70.88 59.745)"/><line class="f" x2="0.039" y2="0.192" transform="translate(70.635 59.483)"/><line class="f" x1="0.048" y2="0.19" transform="translate(71.415 59.509)"/><line class="f" x2="0.088" y2="0.15" transform="translate(72.071 59.504)"/><line class="f" x2="0.088" y2="0.15" transform="translate(70.228 59.742)"/><line class="f" x2="0.088" y2="0.15" transform="translate(71.78 59.768)"/></g></g></g><g transform="translate(0 0)"><g class="c"><path class="g" d="M65.948,0A65.948,65.948,0,1,1,0,65.948,65.948,65.948,0,0,1,65.948,0Z" transform="translate(0 128.599) rotate(-77.164)"/><g transform="translate(27.173 36.223)"><g class="h" transform="translate(3.664 3.664)"><path class="d" d="M1884.942,703.252,1869.785,686l27.881-32.62S1890.209,692.913,1884.942,703.252Z" transform="translate(-1869.785 -587.768)"/><path class="d" d="M1972.47,553.7c-1.4,13.854-1.06,24.272-9.647,32.516s-11.22,8.358-11.22,8.358l-12.021-7.442s1.717-2.29,2.175-9.846.8-20.036.8-20.036-2.061-4.923,0-8.129-.916-11.678-.916-11.678,1.488-3.524,4.694.984S1973.874,539.844,1972.47,553.7Z" transform="translate(-1909.984 -520.239)"/><path class="d" d="M1953.781,539.883l-.339,32.5s.611,5.939,7.423,5.116S1953.781,539.883,1953.781,539.883Z" transform="translate(-1917.967 -522.402)"/><path class="d" d="M1959.035,613.229s11.169,6.147,8.624,16.434c0,0,9.159-7.93,9.058-13.12a5.3,5.3,0,0,0,3.637-2.317c1.757-2.262-21.326-10.785-21.692-1.282Z" transform="translate(-1920.974 -561.949)"/><path class="d" d="M2013.634,542.552a2.715,2.715,0,0,1,.188,3.81l-9.3,8.777a2.714,2.714,0,0,1-3.794-.407h0a2.715,2.715,0,0,1-.189-3.81l9.3-8.777a2.713,2.713,0,0,1,3.793.408Z" transform="translate(-1944.696 -523.358)"/><path class="d" d="M1968.506,552.927h-8.129a5.5,5.5,0,0,1-5.5-5.5V504.154a5.5,5.5,0,0,1,5.5-5.5h8.129Z" transform="translate(-1918.797 -498.658)"/><path class="d" d="M1987.012,498.658h8.358a5.5,5.5,0,0,1,5.5,5.5v43.278a5.5,5.5,0,0,1-5.5,5.5h-8.358Z" transform="translate(-1937.302 -498.658)"/><rect class="d" width="24.158" height="39.157" transform="translate(37.688 5.953)"/><path class="d" d="M1986.956,611.095a2.605,2.605,0,1,1-2.6-2.548A2.577,2.577,0,0,1,1986.956,611.095Z" transform="translate(-1934.27 -561.949)"/><path class="d" d="M1984.339,506.478a.8.8,0,0,1-.8.8h-19.349a.8.8,0,0,1-.8-.8h0a.8.8,0,0,1,.8-.8h19.349a.8.8,0,0,1,.8.8Z" transform="translate(-1923.695 -502.701)"/><rect class="d" width="17.582" height="4.459" rx="2.23" transform="translate(40.919 38.093)"/><path class="d" d="M1933.268,662.688l-24.844,43.969-2.9-3.406c5.267-10.338,12.725-49.876,12.725-49.876l1.716,1.279Z" transform="translate(-1890.371 -587.768)"/><path class="d" d="M2019.918,545.955l1.258,6.79-1.494,1.411v-7.978Z" transform="translate(-1956.119 -525.899)"/><path class="d" d="M2012.283,565.681a2.715,2.715,0,0,1,.189,3.81l-9.3,8.777a2.715,2.715,0,0,1-3.794-.407h0a2.715,2.715,0,0,1-.189-3.811l9.3-8.777a2.714,2.714,0,0,1,3.793.407Z" transform="translate(-1943.918 -536.679)"/><path class="d" d="M2012.122,584.041a2.715,2.715,0,0,1,.19,3.81l-9.3,8.777a2.715,2.715,0,0,1-3.793-.407h0a2.714,2.714,0,0,1-.189-3.81l9.3-8.778a2.713,2.713,0,0,1,3.792.408Z" transform="translate(-1943.826 -547.254)"/><path class="d" d="M2014.187,604.129c1.1,1.164,1.433,2.635.746,3.284l-6.422,6.063c-.687.649-2.136.232-3.236-.932h0c-1.1-1.165-1.434-2.635-.747-3.285l6.424-6.064c.687-.65,2.136-.232,3.236.934Z" transform="translate(-1947.185 -558.69)"/><path class="d" d="M2018.379,569.224a7.1,7.1,0,0,1-1.275,2.85,15.753,15.753,0,0,1-2.035,2.387c-.368.371-.771.7-1.158,1.052-.408.324-.81.655-1.23.961s-.852.6-1.289.877-.891.535-1.35.779c.382-.356.778-.688,1.172-1.021l1.169-1.008c.766-.684,1.537-1.357,2.26-2.077a26.04,26.04,0,0,0,2.081-2.234A10.613,10.613,0,0,0,2018.379,569.224Z" transform="translate(-1950.567 -539.301)"/><path class="d" d="M2017.832,587.823a4.736,4.736,0,0,1-.558,1.638,11.359,11.359,0,0,1-.924,1.473,21.338,21.338,0,0,1-2.29,2.6c-.424.39-.844.784-1.281,1.158-.449.359-.878.742-1.344,1.08s-.921.687-1.4,1.007-.961.628-1.456.92c.414-.4.844-.778,1.271-1.157l1.278-1.137c.847-.761,1.687-1.524,2.5-2.31s1.6-1.6,2.341-2.451a16.583,16.583,0,0,0,1.042-1.333A6.059,6.059,0,0,0,2017.832,587.823Z" transform="translate(-1949.726 -550.013)"/><path class="d" d="M2018.714,610.384a11.526,11.526,0,0,1-1.193,1.9,16.491,16.491,0,0,1-1.476,1.694,13.991,13.991,0,0,1-1.733,1.442,8.077,8.077,0,0,1-2.01,1.018c.6-.458,1.164-.916,1.718-1.394s1.077-.985,1.6-1.5C2016.66,612.516,2017.655,611.444,2018.714,610.384Z" transform="translate(-1951.869 -563.007)"/><path class="d" d="M1967.163,632.342s-5.386,11.494-5,16.135l5.9,2.924S1970.123,633.718,1967.163,632.342Z" transform="translate(-1922.981 -575.654)"/><path class="d" d="M1999.644,653.387c-6.8.415-13.541,6.216-16.97,9.653-1.3-2.539-3.333-6.188-4.613-6.829-1.823-.91-13.889-15.205-13.742-22.819a5.118,5.118,0,0,1,.409-2.015s.286-1.505.833-3.309a1.563,1.563,0,0,1,.046-.15c.75-2.451,1.981-5.382,3.621-5.825V598.213a3.669,3.669,0,0,1,3.722-3.611,3.794,3.794,0,0,1,2.632,1.059,3.536,3.536,0,0,1,1.093,2.552v16.505a1.446,1.446,0,0,1,.009-.167,2.415,2.415,0,0,1,1.92-1.811h0a4.577,4.577,0,0,1,1.234-.168,4.067,4.067,0,0,1,2.213.611.114.114,0,0,1,.027.014,1.879,1.879,0,0,1,.925,1.521V618.5c0-1.187,1.414-2.146,3.17-2.146a4.059,4.059,0,0,1,2.238.626,1.887,1.887,0,0,1,.928,1.521v5.114a1.766,1.766,0,0,1,.015-.218c.159-1.086,1.5-1.93,3.151-1.93a4.05,4.05,0,0,1,2.241.626,1.884,1.884,0,0,1,.925,1.521V643.48C1995.674,644.972,1997.767,649.565,1999.644,653.387Z" transform="translate(-1924.231 -553.917)"/><path class="d" d="M2049.561,781.907l-27.215-1.694-6.619-7.456-13.6-27.4s.861-1.038,2.325-2.5v0c3.429-3.438,10.173-9.239,16.97-9.653a11.548,11.548,0,0,1,3.09.21l4.821,11.947Z" transform="translate(-1946.005 -633.728)"/><path class="d" d="M1974.225,659.43c.042,1.282.01,2.55-.037,3.815s-.118,2.525-.186,3.785l-.22,3.77a25.838,25.838,0,0,0,.013,3.774,7.622,7.622,0,0,1-.54-1.853c-.046-.318-.1-.638-.135-.957s-.054-.639-.082-.96a35.043,35.043,0,0,1,.013-3.83c.087-1.271.206-2.539.4-3.8A29.74,29.74,0,0,1,1974.225,659.43Z" transform="translate(-1929.227 -591.255)"/><path class="d" d="M1993.358,648.9a10.466,10.466,0,0,1-.455-1.923,17.054,17.054,0,0,1-.191-1.935,16.719,16.719,0,0,1,.02-1.944,1.006,1.006,0,1,1,.742-.033,16.832,16.832,0,0,1,.189,1.935,17.106,17.106,0,0,1-.021,1.944A10.434,10.434,0,0,1,1993.358,648.9Z" transform="translate(-1940.574 -580.72)"/><path class="d" d="M2007.748,649.563a3.556,3.556,0,0,1,.373,1.046,5.345,5.345,0,0,1,.1,1.046,5.235,5.235,0,0,1-.1,1.046.59.59,0,1,1-.749,0,5.253,5.253,0,0,1-.1-1.046,5.364,5.364,0,0,1,.1-1.046A3.555,3.555,0,0,1,2007.748,649.563Z" transform="translate(-1948.971 -585.572)"/><path class="d" d="M2022.888,662.5a4.352,4.352,0,0,1,.422,1.028,7.3,7.3,0,0,1,.206,1.014,9.735,9.735,0,0,1,.083,1.009c.015.344,0,.664.044,1.06a1.714,1.714,0,0,1-.77-.875,3.78,3.78,0,0,1-.3-1.067,4.4,4.4,0,0,1-.007-1.087A3.107,3.107,0,0,1,2022.888,662.5Z" transform="translate(-1957.762 -593.026)"/><rect class="d" width="9.422" height="1.339" transform="translate(49.372 16.977)"/><rect class="d" width="6.82" height="1.339" transform="translate(51.974 18.982)"/><rect class="d" width="5.48" height="5.48" rx="2.74" transform="translate(41.054 15.909)"/><path class="d" d="M1970.883,538.3l-1.6,2.565a2.212,2.212,0,0,0,3.207,0Z" transform="translate(-1927.089 -521.49)"/><path class="e" d="M1968.836,545.35a2.676,2.676,0,0,0,3.583,0" transform="translate(-1926.834 -525.55)"/><rect class="d" width="9.422" height="1.339" transform="translate(49.372 30.382)"/><rect class="d" width="6.82" height="1.339" transform="translate(51.974 32.386)"/><rect class="d" width="5.48" height="5.48" rx="2.74" transform="translate(41.054 29.314)"/><rect class="d" width="9.422" height="1.339" transform="translate(49.372 23.443)"/><rect class="d" width="6.82" height="1.339" transform="translate(51.974 25.447)"/><rect class="d" width="5.48" height="5.48" rx="2.74" transform="translate(41.054 22.375)"/><rect class="d" width="9.422" height="1.339" transform="translate(49.372 10.512)"/><rect class="d" width="6.82" height="1.339" transform="translate(51.974 12.516)"/><rect class="d" width="5.48" height="5.48" rx="2.74" transform="translate(41.054 9.444)"/><path class="d" d="M1972.4,528.932h-1.334l-.309-2.523h1.952Z" transform="translate(-1927.942 -514.641)"/><path class="d" d="M1972.641,525.456H1970.3l.1-.434h2.134Z" transform="translate(-1927.678 -513.842)"/><path class="d" d="M1973.281,523.369l-.22,0,.341-.88a.1.1,0,0,1,.1-.066h.473v.206h-.4Z" transform="translate(-1929.267 -512.344)"/><path class="d" d="M1971.039,570.091a1.9,1.9,0,0,0,.755-.346.661.661,0,0,0,.227-.379.575.575,0,0,0-.01-.383l-.006-.013-.038-.018a.071.071,0,0,0-.1.055.614.614,0,0,1-.156.368c-.264.276-.692.086-.959.4a.462.462,0,0,0-.125.316.4.4,0,0,0,0,.046C1970.644,570.188,1971,570.1,1971.039,570.091Z" transform="translate(-1927.866 -539.141)"/><path class="d" d="M1970.8,572.137l.021.029a.785.785,0,0,0,.082.027.8.8,0,0,1-.082-.027Z" transform="translate(-1927.964 -540.979)"/><path class="d" d="M1970.749,571.325c.522-.042,1.146-.092,1.285-.389a.469.469,0,0,0,0-.331.455.455,0,0,0-.083-.137l.023-.03a1.433,1.433,0,0,1-.512.441c-.457.227-.945.129-1.228.408a.352.352,0,0,0-.116.211c0,.008,0,.015,0,.023A.989.989,0,0,1,1970.749,571.325Z" transform="translate(-1927.571 -540)"/><path class="d" d="M1970.352,573.6l-.005-.006Z" transform="translate(-1927.704 -541.818)"/><path class="d" d="M1971.936,576.4h-1.542a.233.233,0,0,1-.226-.176l-.4-1.566a.078.078,0,0,1,.075-.1h2.635a.078.078,0,0,1,.075.1l-.4,1.566a.233.233,0,0,1-.226.176Zm0,0" transform="translate(-1927.372 -542.374)"/><path class="d" d="M1972.329,574.716h-2.7a.182.182,0,1,1,0-.365h2.7a.182.182,0,1,1,0,.365Zm0,0" transform="translate(-1927.184 -542.254)"/><path class="d" d="M1972.631,576.587h-2.4l.1.4h2.2Zm0,0" transform="translate(-1927.637 -543.541)"/><path class="d" d="M1972.671,572.241a.515.515,0,0,0-.28-.279c-.167.268-.763.317-1.266.358a.911.911,0,0,0-.671.236.54.54,0,0,0-.076.123l-.005-.006a.185.185,0,0,0-.009.045c.236-.012.628-.024,1.024-.017.752.013,1.163.082,1.283-.13A.434.434,0,0,0,1972.671,572.241Z" transform="translate(-1927.714 -540.878)"/><rect class="d" width="4.008" height="0.857" rx="0.428" transform="translate(41.895 25.728)"/><path class="d" d="M1968.6,559.061l-.122.487a.089.089,0,0,0,.121.1l1.161-.5h.651l.795.621a.088.088,0,0,0,.109,0l.784-.62h.155l.223.336a.027.027,0,0,0,.048-.022l-.1-.374Z" transform="translate(-1926.625 -533.447)"/><rect class="d" width="4.008" height="0.857" rx="0.428" transform="translate(41.895 24.871)"/><path class="d" d="M1968.6,556.454s-.315.313-.27.426.154.011.349-.042.3-.055.335.057-.051.18.091.224.205-.169.354-.163.212.022.278.094.084.1.189.106.119-.21.259-.265.124-.023.251.021a.348.348,0,0,0,.342-.086.151.151,0,0,1,.263.048c.056.135.129.392.227.423s.219.047.28-.1.038-.4.176-.4.109.075.187.159a.208.208,0,0,0,.254.01c.033-.031-.028-.187.073-.165.3.062.2-.112.075-.359S1968.6,556.454,1968.6,556.454Z" transform="translate(-1926.541 -531.879)"/><path class="d" d="M1972.4,554.742h-3.622a.193.193,0,0,1-.193-.193h0a1.338,1.338,0,0,1,1.338-1.338h1.331a1.338,1.338,0,0,1,1.339,1.338h0A.193.193,0,0,1,1972.4,554.742Z" transform="translate(-1926.688 -530.078)"/><line class="f" x1="0.167" y2="0.145" transform="translate(42.798 23.236)"/><line class="f" x1="0.167" y2="0.145" transform="translate(43.707 23.522)"/><line class="f" x2="0.039" y2="0.192" transform="translate(43.462 23.26)"/><line class="f" x1="0.048" y2="0.19" transform="translate(44.242 23.286)"/><line class="f" x2="0.088" y2="0.15" transform="translate(44.898 23.281)"/><line class="f" x2="0.088" y2="0.15" transform="translate(43.055 23.519)"/><line class="f" x2="0.088" y2="0.15" transform="translate(44.607 23.545)"/></g><g transform="translate(0 65.608)"><path class="i" d="M1876.3,694.611l-15.156-17.256,27.881-32.62S1881.569,684.273,1876.3,694.611Z" transform="translate(-1861.145 -644.736)"/></g><path class="j" d="M1963.83,545.057c-1.4,13.854-1.06,24.272-9.647,32.516s-11.22,8.358-11.22,8.358l-12.022-7.442s1.717-2.29,2.176-9.846.8-20.036.8-20.036-2.061-4.923,0-8.129S1933,528.8,1933,528.8s1.488-3.524,4.694.984S1965.234,531.2,1963.83,545.057Z" transform="translate(-1901.344 -511.599)"/><path class="k" d="M1945.141,531.243l-.339,32.5s.611,5.939,7.423,5.116S1945.141,531.243,1945.141,531.243Z" transform="translate(-1909.328 -513.762)"/><path class="l" d="M1950.4,604.589s11.169,6.147,8.624,16.434c0,0,9.159-7.93,9.058-13.12a5.3,5.3,0,0,0,3.636-2.317c1.757-2.262-21.327-10.785-21.692-1.282Z" transform="translate(-1912.334 -553.309)"/><path class="j" d="M2004.993,533.912a2.715,2.715,0,0,1,.189,3.811l-9.3,8.777a2.715,2.715,0,0,1-3.794-.407h0a2.715,2.715,0,0,1-.188-3.811l9.3-8.777a2.713,2.713,0,0,1,3.793.407Z" transform="translate(-1936.056 -514.718)"/><g transform="translate(36.085)"><path class="i" d="M1959.867,544.287h-8.129a5.5,5.5,0,0,1-5.5-5.5V495.514a5.5,5.5,0,0,1,5.5-5.5h8.129Z" transform="translate(-1946.242 -490.018)"/><g transform="translate(13.625)"><path class="i" d="M1978.372,490.018h8.358a5.5,5.5,0,0,1,5.5,5.5v43.278a5.5,5.5,0,0,1-5.5,5.5h-8.358Z" transform="translate(-1978.372 -490.018)"/></g><rect class="m" width="24.158" height="39.157" transform="translate(1.603 5.953)"/><path class="n" d="M1978.316,602.455a2.605,2.605,0,1,1-2.6-2.548A2.577,2.577,0,0,1,1978.316,602.455Z" transform="translate(-1961.715 -553.309)"/><path class="o" d="M1975.7,497.838a.8.8,0,0,1-.8.8h-19.349a.8.8,0,0,1-.8-.8h0a.8.8,0,0,1,.8-.8H1974.9a.8.8,0,0,1,.8.8Z" transform="translate(-1951.14 -494.061)"/><g transform="translate(4.834 38.093)"><rect class="p" width="17.582" height="4.459" rx="2.23"/></g></g><g transform="translate(15.157 65.608)"><path class="i" d="M1924.628,654.048l-24.844,43.969-2.9-3.406c5.267-10.338,12.725-49.875,12.725-49.875l1.716,1.279Z" transform="translate(-1896.888 -644.736)"/></g><path class="l" d="M2011.278,537.315l1.258,6.79-1.494,1.411v-7.978Z" transform="translate(-1947.479 -517.259)"/><path class="j" d="M2003.643,557.041a2.715,2.715,0,0,1,.189,3.81l-9.3,8.777a2.715,2.715,0,0,1-3.794-.407h0a2.715,2.715,0,0,1-.189-3.811l9.3-8.777a2.714,2.714,0,0,1,3.793.407Z" transform="translate(-1935.278 -528.039)"/><path class="j" d="M2003.482,575.4a2.715,2.715,0,0,1,.189,3.81l-9.3,8.777a2.714,2.714,0,0,1-3.793-.408h0a2.714,2.714,0,0,1-.19-3.81l9.3-8.778a2.713,2.713,0,0,1,3.792.408Z" transform="translate(-1935.186 -538.614)"/><path class="j" d="M2005.547,595.489c1.1,1.164,1.433,2.635.746,3.284l-6.422,6.063c-.687.649-2.136.232-3.236-.932h0c-1.1-1.165-1.434-2.635-.747-3.285l6.424-6.064c.687-.65,2.136-.232,3.236.934Z" transform="translate(-1938.545 -550.05)"/><g transform="translate(59.475 29.923)"><path class="q" d="M2009.739,560.584a7.1,7.1,0,0,1-1.275,2.85,15.754,15.754,0,0,1-2.034,2.386c-.369.371-.771.7-1.159,1.052-.408.324-.81.655-1.23.961s-.853.6-1.289.877-.891.535-1.35.779c.382-.356.778-.688,1.172-1.021l1.169-1.008c.766-.684,1.537-1.357,2.26-2.077a26.082,26.082,0,0,0,2.081-2.234A10.634,10.634,0,0,0,2009.739,560.584Z" transform="translate(-2001.402 -560.584)"/></g><g transform="translate(58.857 37.81)"><path class="q" d="M2009.192,579.183a4.736,4.736,0,0,1-.558,1.638,11.365,11.365,0,0,1-.924,1.473,21.317,21.317,0,0,1-2.29,2.6c-.424.39-.844.784-1.281,1.158-.449.359-.878.742-1.344,1.08s-.921.687-1.4,1.007-.961.628-1.456.92c.414-.4.844-.778,1.271-1.157l1.278-1.137c.847-.761,1.687-1.524,2.5-2.31s1.6-1.6,2.341-2.451a16.64,16.64,0,0,0,1.042-1.333A6.067,6.067,0,0,0,2009.192,579.183Z" transform="translate(-1999.943 -579.183)"/></g><g transform="translate(60.434 47.377)"><path class="q" d="M2010.074,601.744a11.527,11.527,0,0,1-1.193,1.9,16.42,16.42,0,0,1-1.476,1.694,13.966,13.966,0,0,1-1.733,1.442,8.08,8.08,0,0,1-2.01,1.018c.6-.458,1.164-.916,1.717-1.394s1.078-.985,1.6-1.5C2008.02,603.877,2009.015,602.8,2010.074,601.744Z" transform="translate(-2003.663 -601.744)"/></g><path class="l" d="M1958.524,623.7s-5.387,11.494-5,16.135l5.9,2.924S1961.484,625.078,1958.524,623.7Z" transform="translate(-1914.341 -567.014)"/><path class="j" d="M1991,644.747c-6.8.415-13.541,6.216-16.97,9.653-1.3-2.539-3.333-6.188-4.613-6.829-1.823-.91-13.889-15.205-13.742-22.819a5.124,5.124,0,0,1,.409-2.016s.286-1.505.833-3.309a1.564,1.564,0,0,1,.046-.15c.751-2.451,1.981-5.382,3.621-5.825V589.573a3.669,3.669,0,0,1,3.721-3.611,3.794,3.794,0,0,1,2.632,1.059,3.536,3.536,0,0,1,1.093,2.552v16.505a1.5,1.5,0,0,1,.009-.167,2.416,2.416,0,0,1,1.92-1.811h0a4.571,4.571,0,0,1,1.233-.168,4.066,4.066,0,0,1,2.213.611.109.109,0,0,1,.028.014,1.879,1.879,0,0,1,.925,1.521v3.781c0-1.187,1.414-2.146,3.17-2.146a4.059,4.059,0,0,1,2.238.626,1.887,1.887,0,0,1,.928,1.521v5.114a1.766,1.766,0,0,1,.015-.217c.159-1.086,1.505-1.929,3.151-1.929a4.049,4.049,0,0,1,2.241.626,1.884,1.884,0,0,1,.925,1.521V634.84C1987.034,636.332,1989.127,640.925,1991,644.747Z" transform="translate(-1915.591 -545.277)"/><g transform="translate(56.117 99.446)"><path class="i" d="M2040.921,773.267l-27.215-1.694-6.619-7.456-13.6-27.4s.861-1.038,2.325-2.5v0c3.429-3.438,10.173-9.239,16.97-9.654a11.564,11.564,0,0,1,3.09.21l4.821,11.947Z" transform="translate(-1993.482 -724.534)"/></g><g transform="translate(43.764 68.175)"><path class="q" d="M1965.585,650.79c.042,1.282.01,2.55-.038,3.815s-.118,2.525-.186,3.785l-.22,3.77a25.872,25.872,0,0,0,.013,3.774,7.632,7.632,0,0,1-.54-1.853c-.046-.318-.1-.638-.135-.957s-.054-.639-.082-.96a34.982,34.982,0,0,1,.013-3.83c.087-1.271.206-2.539.4-3.8A29.655,29.655,0,0,1,1965.585,650.79Z" transform="translate(-1964.351 -650.79)"/></g><g transform="translate(52.119 60.419)"><path class="q" d="M1984.718,640.255a10.467,10.467,0,0,1-.455-1.923,17.112,17.112,0,0,1-.191-1.934,16.829,16.829,0,0,1,.02-1.944,1.006,1.006,0,1,1,.742-.033,16.778,16.778,0,0,1,.19,1.935A17.107,17.107,0,0,1,1985,638.3,10.413,10.413,0,0,1,1984.718,640.255Z" transform="translate(-1984.053 -632.499)"/></g><g transform="translate(58.301 63.991)"><path class="q" d="M1999.108,640.923a3.555,3.555,0,0,1,.373,1.046,5.308,5.308,0,0,1,.1,1.046,5.235,5.235,0,0,1-.1,1.046.59.59,0,1,1-.749,0,5.235,5.235,0,0,1-.1-1.046,5.345,5.345,0,0,1,.1-1.046A3.555,3.555,0,0,1,1999.108,640.923Z" transform="translate(-1998.632 -640.923)"/></g><g transform="translate(64.773 69.478)"><path class="q" d="M2014.248,653.864a4.362,4.362,0,0,1,.422,1.028,7.3,7.3,0,0,1,.206,1.014,9.667,9.667,0,0,1,.083,1.009c.015.344,0,.664.044,1.06a1.713,1.713,0,0,1-.77-.875,3.772,3.772,0,0,1-.3-1.067,4.4,4.4,0,0,1-.006-1.087A3.1,3.1,0,0,1,2014.248,653.864Z" transform="translate(-2013.895 -653.864)"/></g><g transform="translate(41.054 9.444)"><g transform="translate(0 6.465)"><g transform="translate(8.318 1.068)"><rect class="r" width="9.422" height="1.339"/><g transform="translate(2.602 2.004)"><rect class="r" width="6.82" height="1.339"/></g></g><rect class="r" width="5.48" height="5.48" rx="2.74"/><g transform="translate(0.949 0.901)"><path class="m" d="M1962.243,529.661l-1.6,2.565a2.212,2.212,0,0,0,3.207,0Z" transform="translate(-1960.451 -529.661)"/><path class="s" d="M1960.2,536.71a2.676,2.676,0,0,0,3.583,0" transform="translate(-1960.196 -533.721)"/></g></g><g transform="translate(0 19.87)"><g transform="translate(8.318 1.068)"><rect class="r" width="9.422" height="1.339"/><g transform="translate(2.602 2.004)"><rect class="r" width="6.82" height="1.339"/></g></g><rect class="r" width="5.48" height="5.48" rx="2.74"/></g><g transform="translate(0 12.931)"><g transform="translate(8.318 1.068)"><rect class="i" width="9.422" height="1.339"/><g transform="translate(2.602 2.004)"><rect class="i" width="6.82" height="1.339"/></g></g><rect class="i" width="5.48" height="5.48" rx="2.74"/></g><g transform="translate(8.318 1.068)"><rect class="r" width="9.422" height="1.339"/><g transform="translate(2.602 2.004)"><rect class="r" width="6.82" height="1.339"/></g></g><rect class="r" width="5.48" height="5.48" rx="2.74"/><g transform="translate(1.57 0.633)"><path class="m" d="M1963.762,520.292h-1.334l-.309-2.523h1.951Z" transform="translate(-1961.926 -516.077)"/><path class="m" d="M1964,516.816h-2.339l.1-.434h2.133Z" transform="translate(-1961.662 -515.279)"/><g transform="translate(1.17)"><path class="m" d="M1964.641,514.729l-.22,0,.341-.88a.1.1,0,0,1,.1-.066h.473v.206h-.4Z" transform="translate(-1964.421 -513.78)"/></g></g><g transform="translate(1.207 20.362)"><g transform="translate(0.502)"><path class="m" d="M1962.4,561.451a1.893,1.893,0,0,0,.755-.346.659.659,0,0,0,.227-.379.574.574,0,0,0-.01-.383l-.006-.013-.037-.018a.071.071,0,0,0-.1.055.614.614,0,0,1-.156.368c-.264.276-.692.086-.959.4a.463.463,0,0,0-.125.316.4.4,0,0,0,.005.046C1962,561.548,1962.365,561.46,1962.4,561.451Z" transform="translate(-1961.988 -560.306)"/><path class="m" d="M1962.159,563.5a.353.353,0,0,0,.021.029.757.757,0,0,0,.082.027.776.776,0,0,1-.082-.027Z" transform="translate(-1962.087 -562.144)"/></g><g transform="translate(0.284 0.633)"><path class="m" d="M1962.109,562.685c.522-.042,1.147-.092,1.285-.389a.469.469,0,0,0,0-.331.453.453,0,0,0-.083-.137l.023-.03a1.434,1.434,0,0,1-.512.441c-.457.227-.945.129-1.228.408a.353.353,0,0,0-.116.211c0,.008,0,.015,0,.023A.988.988,0,0,1,1962.109,562.685Z" transform="translate(-1961.476 -561.798)"/><path class="m" d="M1961.712,564.96l0-.006Z" transform="translate(-1961.609 -563.616)"/></g><path class="m" d="M1963.3,567.758h-1.542a.233.233,0,0,1-.226-.176l-.4-1.566a.078.078,0,0,1,.075-.1h2.635a.078.078,0,0,1,.076.1l-.4,1.566a.232.232,0,0,1-.226.176Zm0,0" transform="translate(-1960.992 -563.539)"/><path class="m" d="M1963.689,566.076h-2.7a.182.182,0,1,1,0-.365h2.7a.182.182,0,1,1,0,.365Zm0,0" transform="translate(-1960.805 -563.419)"/><path class="m" d="M1963.991,567.947h-2.4l.1.4h2.2Zm0,0" transform="translate(-1961.257 -564.707)"/><path class="m" d="M1964.031,563.6a.515.515,0,0,0-.279-.279c-.168.268-.764.317-1.266.357a.913.913,0,0,0-.671.236.529.529,0,0,0-.076.123l-.005-.006a.187.187,0,0,0-.009.045c.236-.012.628-.024,1.025-.017.752.013,1.163.081,1.283-.13A.434.434,0,0,0,1964.031,563.6Z" transform="translate(-1961.335 -562.043)"/></g></g><g transform="translate(41.787 23.133)"><rect class="t" width="4.008" height="0.857" rx="0.428" transform="translate(0.109 2.595)"/><path class="u" d="M1959.959,550.421l-.122.487a.089.089,0,0,0,.121.1l1.161-.5h.651l.795.621a.088.088,0,0,0,.109,0l.784-.62h.154l.223.336a.027.027,0,0,0,.048-.021l-.1-.374Z" transform="translate(-1959.772 -547.94)"/><rect class="v" width="4.008" height="0.857" rx="0.428" transform="translate(0.109 1.738)"/><path class="w" d="M1959.962,547.814s-.316.313-.27.426.154.011.349-.042.3-.055.335.057-.051.18.091.224.205-.169.354-.163.212.022.278.094.084.1.189.106.119-.21.259-.265.124-.023.251.021a.348.348,0,0,0,.342-.086.152.152,0,0,1,.263.048c.056.135.128.392.227.423s.219.047.28-.1.038-.4.175-.4.109.075.187.159a.208.208,0,0,0,.254.01c.033-.031-.029-.187.073-.165.3.061.2-.112.075-.36S1959.962,547.814,1959.962,547.814Z" transform="translate(-1959.687 -546.372)"/><path class="t" d="M1963.759,546.1h-3.622a.193.193,0,0,1-.193-.193h0a1.338,1.338,0,0,1,1.338-1.338h1.331a1.338,1.338,0,0,1,1.339,1.338h0A.193.193,0,0,1,1963.759,546.1Z" transform="translate(-1959.835 -544.571)"/><g transform="translate(1.011 0.103)"><line class="x" x1="0.167" y2="0.145"/><line class="x" x1="0.167" y2="0.145" transform="translate(0.909 0.286)"/><line class="x" x2="0.039" y2="0.192" transform="translate(0.664 0.024)"/><line class="x" x1="0.048" y2="0.19" transform="translate(1.444 0.05)"/><line class="x" x2="0.088" y2="0.15" transform="translate(2.1 0.045)"/><line class="x" x2="0.088" y2="0.15" transform="translate(0.257 0.283)"/><line class="x" x2="0.088" y2="0.15" transform="translate(1.809 0.309)"/></g></g></g></g></g></svg>