<svg xmlns="http://www.w3.org/2000/svg" xmlns:xlink="http://www.w3.org/1999/xlink" width="162.99" height="162.99" viewBox="0 0 162.99 162.99"><defs><style>.a{fill:none;}.b{fill:#ebb6a3;}.c{opacity:0.2;}.d{clip-path:url(#a);}.e{fill:#415659;}.f{clip-path:url(#b);}.g{fill:#f68f6a;}.h{opacity:0.4;}.i{fill:#080a41;}.j{fill:#fff;}.k{fill:#2c2a3f;}.l{fill:#30336b;}.m{fill:#ef3901;}.n{fill:#f4be92;}.o{fill:#d39871;}.p{fill:#1c1c1c;}.q{fill:#f4f4f4;}.r{fill:#bababa;}.s{fill:#ff9671;}.t{fill:#ff0;}.u{fill:#ffe5e3;}</style><clipPath id="a"><circle class="a" cx="65.948" cy="65.948" r="65.948" transform="translate(0 128.599) rotate(-77.164)"/></clipPath><clipPath id="b"><circle class="b" cx="65.948" cy="65.948" r="65.948" transform="translate(0 128.599) rotate(-77.164)"/></clipPath></defs><g class="c" transform="translate(5.089 5.089)"><g transform="translate(0 0)"><g class="d"><circle class="e" cx="65.948" cy="65.948" r="65.948" transform="translate(0 128.599) rotate(-77.164)"/><path class="e" d="M1298.817,564.927h-8.129a5.5,5.5,0,0,1-5.5-5.5V516.154a5.5,5.5,0,0,1,5.5-5.5h8.129Z" transform="translate(-1218.271 -470.771)"/><path class="e" d="M1317.322,510.658h8.358a5.5,5.5,0,0,1,5.5,5.5v43.278a5.5,5.5,0,0,1-5.5,5.5h-8.358Z" transform="translate(-1236.776 -470.771)"/><rect class="e" width="24.158" height="39.157" transform="translate(68.525 45.84)"/><path class="e" d="M1317.266,623.095a2.605,2.605,0,1,1-2.6-2.548A2.577,2.577,0,0,1,1317.266,623.095Z" transform="translate(-1233.743 -534.062)"/><path class="e" d="M1314.65,518.478a.8.8,0,0,1-.8.8H1294.5a.8.8,0,0,1-.8-.8h0a.8.8,0,0,1,.8-.8h19.349a.8.8,0,0,1,.8.8Z" transform="translate(-1223.169 -474.814)"/><rect class="e" width="17.582" height="4.459" rx="2.23" transform="translate(71.756 68.332)"/><path class="e" d="M1350.153,637.577c-6.638,1.518-12.345,8.342-15.167,12.293-1.7-2.293-4.3-5.561-5.665-5.985-1.947-.6-16.184-12.735-17.282-20.271a5.121,5.121,0,0,1,.075-2.055s.037-1.532.282-3.4a1.452,1.452,0,0,1,.021-.155c.341-2.541,1.076-5.634,2.622-6.338l-3.9-23.559a3.669,3.669,0,0,1,3.082-4.171,3.8,3.8,0,0,1,2.77.616,3.533,3.533,0,0,1,1.495,2.339l2.693,16.284a1.52,1.52,0,0,1-.018-.167,2.415,2.415,0,0,1,1.6-2.1h0a4.576,4.576,0,0,1,1.189-.367,4.063,4.063,0,0,1,2.283.242.118.118,0,0,1,.03.009,1.88,1.88,0,0,1,1.161,1.349l.617,3.73c-.194-1.172,1.045-2.349,2.777-2.635a4.059,4.059,0,0,1,2.31.253,1.887,1.887,0,0,1,1.164,1.349l.835,5.045a1.845,1.845,0,0,1-.02-.217c-.02-1.1,1.17-2.149,2.794-2.418a4.05,4.05,0,0,1,2.313.252,1.883,1.883,0,0,1,1.161,1.349l3.242,19.6C1344.863,629.922,1347.677,634.112,1350.153,637.577Z" transform="translate(-1233.189 -512.946)"/><path class="e" d="M1415.758,753.551l-27.127,2.77-7.747-6.275-17.894-24.815s.68-1.164,1.886-2.846v0c2.822-3.951,8.529-10.775,15.167-12.294a11.545,11.545,0,0,1,3.083-.3l6.706,11Z" transform="translate(-1263.078 -585.457)"/><path class="e" d="M1320.181,649.4c.25,1.258.425,2.514.586,3.77s.3,2.511.435,3.764l.4,3.755a25.8,25.8,0,0,0,.629,3.722,7.622,7.622,0,0,1-.835-1.741c-.1-.306-.206-.612-.289-.921s-.158-.622-.237-.933a35.125,35.125,0,0,1-.612-3.781c-.122-1.268-.211-2.539-.226-3.812A29.679,29.679,0,0,1,1320.181,649.4Z" transform="translate(-1238.331 -550.678)"/><path class="e" d="M1336.293,636.083a10.477,10.477,0,0,1-.763-1.823,17.144,17.144,0,0,1-.5-1.877,16.8,16.8,0,0,1-.3-1.921,10.335,10.335,0,0,1-.037-1.976,10.349,10.349,0,0,1,.764,1.823,16.845,16.845,0,0,1,.5,1.878,17.035,17.035,0,0,1,.3,1.921A10.475,10.475,0,0,1,1336.293,636.083Z" transform="translate(-1246.761 -538.635)"/><path class="e" d="M1350.573,634.359a3.557,3.557,0,0,1,.539.971,5.326,5.326,0,0,1,.272,1.016,5.234,5.234,0,0,1,.07,1.048.59.59,0,1,1-.739.123,5.294,5.294,0,0,1-.271-1.016,5.408,5.408,0,0,1-.069-1.049A3.577,3.577,0,0,1,1350.573,634.359Z" transform="translate(-1255.812 -542.017)"/><path class="e" d="M1367.534,644.684a4.362,4.362,0,0,1,.584.946,7.355,7.355,0,0,1,.369.967,9.862,9.862,0,0,1,.247.982c.071.338.108.655.217,1.038a1.709,1.709,0,0,1-.9-.737,3.773,3.773,0,0,1-.471-1,4.376,4.376,0,0,1-.184-1.072A3.1,3.1,0,0,1,1367.534,644.684Z" transform="translate(-1265.612 -547.964)"/><path class="e" d="M1318.586,538.076l-4.391,4.416a.46.46,0,0,1-.646,0l-7.484-7.322a.451.451,0,0,1-.007-.642l4.391-4.416a.46.46,0,0,1,.647,0l7.484,7.322A.451.451,0,0,1,1318.586,538.076Z" transform="translate(-1230.213 -481.901)"/><path class="e" d="M1313.994,542.3a.458.458,0,0,1-.54.079.444.444,0,0,1-.106-.078l-1.251-1.223-6.233-6.1a.451.451,0,0,1-.007-.641l3.016-3.033.921-.926.454-.457a.46.46,0,0,1,.647,0l1.818,1.779,5.665,5.544a.45.45,0,0,1,.007.641l-.454.456-.921.926Z" transform="translate(-1230.097 -481.788)"/><path class="e" d="M1321.283,540.065l-8.137-7.961.921-.926,8.137,7.961Z" transform="translate(-1234.37 -482.59)"/><path class="e" d="M1.072,0h9.185a1.072,1.072,0,0,1,1.072,1.072V6.079a1.073,1.073,0,0,1-1.073,1.073H1.072A1.072,1.072,0,0,1,0,6.08V1.072A1.072,1.072,0,0,1,1.072,0Z" transform="translate(73.424 55.089) rotate(-6.302)"/><path class="e" d="M1312.309,550.328a.452.452,0,0,1-.276.469.426.426,0,0,1-.126.033l-1.73.191-3.712.41-4.914.542a.455.455,0,0,1-.5-.4l-.471-4.262-.144-1.3-.07-.642a.454.454,0,0,1,.4-.5l2.516-.278,7.84-.865a.454.454,0,0,1,.5.4l.07.641.015.14.129,1.162Z" transform="translate(-1227.007 -489.812)"/><circle class="e" cx="0.369" cy="0.369" r="0.369" transform="translate(74.601 56.37)"/><circle class="e" cx="0.369" cy="0.369" r="0.369" transform="translate(75.924 56.226)"/><path class="e" d="M1325.527,556.776a.622.622,0,0,1-.551.686.615.615,0,0,1-.318-.049.622.622,0,0,0-.117-1.071.622.622,0,0,1,.986.435Z" transform="translate(-1240.934 -497.014)"/><path class="e" d="M1324.564,557.007a.359.359,0,1,1-.367-.5A.622.622,0,0,1,1324.564,557.007Z" transform="translate(-1240.589 -497.177)"/><path class="e" d="M1324.564,557.007a.359.359,0,1,1-.367-.5A.622.622,0,0,1,1324.564,557.007Z" transform="translate(-1240.589 -497.177)"/><path class="e" d="M1323.474,557.5a.622.622,0,1,1-.117-1.071.622.622,0,0,0,.117,1.071Z" transform="translate(-1239.749 -497.105)"/><path class="e" d="M.41,0H1.546a.411.411,0,0,1,.411.411V.619a.411.411,0,0,1-.411.411H.41A.41.41,0,0,1,0,.621V.41A.41.41,0,0,1,.41,0Z" transform="translate(81.963 55.498) rotate(-6.219)"/><rect class="e" width="6.454" height="0.91" rx="0.455" transform="translate(74.663 59.353) rotate(-6.332)"/><rect class="e" width="4.988" height="0.91" rx="0.455" transform="translate(74.79 60.497) rotate(-6.332)"/><path class="e" d="M1290.177,556.287h-8.129a5.5,5.5,0,0,1-5.5-5.5V507.514a5.5,5.5,0,0,1,5.5-5.5h8.129Z" transform="translate(-1213.295 -465.795)"/><path class="e" d="M1308.682,502.018h8.358a5.5,5.5,0,0,1,5.5,5.5v43.278a5.5,5.5,0,0,1-5.5,5.5h-8.358Z" transform="translate(-1231.799 -465.795)"/><rect class="e" width="24.158" height="39.157" transform="translate(64.861 42.176)"/><path class="e" d="M1308.626,614.455a2.605,2.605,0,1,1-2.6-2.548A2.577,2.577,0,0,1,1308.626,614.455Z" transform="translate(-1228.767 -529.086)"/><path class="e" d="M1306.01,509.838a.8.8,0,0,1-.8.8h-19.349a.8.8,0,0,1-.8-.8h0a.8.8,0,0,1,.8-.8h19.349a.8.8,0,0,1,.8.8Z" transform="translate(-1218.192 -469.838)"/><rect class="e" width="17.582" height="4.459" rx="2.23" transform="translate(68.092 64.668)"/><path class="e" d="M1341.513,628.937c-6.637,1.518-12.345,8.342-15.167,12.294-1.7-2.293-4.3-5.561-5.665-5.985-1.947-.6-16.184-12.735-17.282-20.271a5.116,5.116,0,0,1,.075-2.055s.037-1.532.282-3.4a1.42,1.42,0,0,1,.021-.155c.341-2.541,1.076-5.634,2.622-6.338l-3.9-23.559a3.669,3.669,0,0,1,3.082-4.171,3.8,3.8,0,0,1,2.769.616,3.534,3.534,0,0,1,1.495,2.339l2.693,16.284a1.523,1.523,0,0,1-.018-.167,2.416,2.416,0,0,1,1.6-2.1h0a4.57,4.57,0,0,1,1.189-.367,4.062,4.062,0,0,1,2.283.242.116.116,0,0,1,.03.009,1.88,1.88,0,0,1,1.161,1.349l.617,3.73c-.194-1.172,1.045-2.349,2.777-2.635a4.059,4.059,0,0,1,2.31.253,1.887,1.887,0,0,1,1.164,1.349l.834,5.045a1.846,1.846,0,0,1-.02-.217c-.02-1.1,1.17-2.149,2.794-2.418a4.049,4.049,0,0,1,2.313.252,1.883,1.883,0,0,1,1.161,1.349l3.242,19.6C1336.223,621.283,1339.037,625.472,1341.513,628.937Z" transform="translate(-1228.212 -507.97)"/><path class="e" d="M1407.118,744.911l-27.127,2.77-7.747-6.275-17.894-24.815s.68-1.164,1.886-2.846v0c2.822-3.951,8.529-10.775,15.167-12.294a11.545,11.545,0,0,1,3.083-.3l6.706,11Z" transform="translate(-1258.102 -580.481)"/><path class="e" d="M1311.541,640.757c.25,1.258.425,2.514.585,3.77s.3,2.511.435,3.764l.4,3.755a25.815,25.815,0,0,0,.629,3.722,7.632,7.632,0,0,1-.835-1.741c-.1-.306-.206-.612-.289-.921s-.158-.622-.237-.933a35.091,35.091,0,0,1-.612-3.781c-.122-1.268-.211-2.539-.226-3.812A29.635,29.635,0,0,1,1311.541,640.757Z" transform="translate(-1233.355 -545.702)"/><path class="e" d="M1327.653,627.443a10.445,10.445,0,0,1-.763-1.823,17.116,17.116,0,0,1-.5-1.877,16.724,16.724,0,0,1-.3-1.921,10.3,10.3,0,0,1-.037-1.976,10.368,10.368,0,0,1,.764,1.823,16.845,16.845,0,0,1,.5,1.878,17.035,17.035,0,0,1,.3,1.921A10.465,10.465,0,0,1,1327.653,627.443Z" transform="translate(-1241.785 -533.659)"/><path class="e" d="M1341.934,625.719a3.568,3.568,0,0,1,.539.971,5.326,5.326,0,0,1,.272,1.016,5.253,5.253,0,0,1,.07,1.048.59.59,0,1,1-.739.123,5.288,5.288,0,0,1-.271-1.016,5.38,5.38,0,0,1-.069-1.049A3.566,3.566,0,0,1,1341.934,625.719Z" transform="translate(-1250.835 -537.041)"/><path class="e" d="M1358.894,636.044a4.354,4.354,0,0,1,.584.946,7.318,7.318,0,0,1,.369.967,9.758,9.758,0,0,1,.247.982c.071.338.108.655.217,1.038a1.71,1.71,0,0,1-.9-.737,3.772,3.772,0,0,1-.471-1,4.38,4.38,0,0,1-.184-1.072A3.113,3.113,0,0,1,1358.894,636.044Z" transform="translate(-1260.636 -542.988)"/><path class="e" d="M1309.946,529.436l-4.391,4.416a.46.46,0,0,1-.646,0l-7.484-7.322a.451.451,0,0,1-.007-.642l4.391-4.416a.46.46,0,0,1,.647,0l7.484,7.322A.451.451,0,0,1,1309.946,529.436Z" transform="translate(-1225.236 -476.924)"/><path class="e" d="M1305.354,533.657a.458.458,0,0,1-.54.079.444.444,0,0,1-.106-.078l-1.25-1.223-6.233-6.1a.451.451,0,0,1-.007-.641l3.016-3.033.921-.926.454-.457a.46.46,0,0,1,.647,0l1.818,1.779,5.665,5.544a.45.45,0,0,1,.007.641l-.454.456-.921.926Z" transform="translate(-1225.121 -476.812)"/><path class="e" d="M1312.643,531.425l-8.137-7.961.921-.926,8.137,7.961Z" transform="translate(-1229.394 -477.613)"/><rect class="e" width="11.329" height="7.152" rx="1.072" transform="translate(69.76 51.425) rotate(-6.302)"/><path class="e" d="M1303.669,541.688a.452.452,0,0,1-.276.469.428.428,0,0,1-.126.033l-1.73.191-3.712.41-4.914.542a.455.455,0,0,1-.5-.4l-.471-4.262-.144-1.3-.07-.642a.454.454,0,0,1,.4-.5l2.516-.278,7.84-.865a.454.454,0,0,1,.5.4l.07.641.015.14.129,1.162Z" transform="translate(-1222.031 -484.836)"/><circle class="e" cx="0.369" cy="0.369" r="0.369" transform="translate(70.937 52.706)"/><circle class="e" cx="0.369" cy="0.369" r="0.369" transform="translate(72.26 52.562)"/><path class="e" d="M1316.887,548.136a.622.622,0,0,1-.869.636.622.622,0,0,0-.117-1.071.621.621,0,0,1,.985.435Z" transform="translate(-1235.958 -492.037)"/><path class="e" d="M1315.924,548.367a.359.359,0,1,1-.367-.5A.622.622,0,0,1,1315.924,548.367Z" transform="translate(-1235.612 -492.201)"/><path class="e" d="M1315.924,548.367a.359.359,0,1,1-.367-.5A.622.622,0,0,1,1315.924,548.367Z" transform="translate(-1235.612 -492.201)"/><path class="e" d="M1314.833,548.864a.622.622,0,1,1-.117-1.071.622.622,0,0,0,.117,1.071Z" transform="translate(-1234.773 -492.129)"/><path class="e" d="M.41,0H1.546a.411.411,0,0,1,.411.411V.619a.411.411,0,0,1-.411.411H.41A.41.41,0,0,1,0,.621V.41A.41.41,0,0,1,.41,0Z" transform="translate(78.299 51.834) rotate(-6.219)"/><rect class="e" width="6.454" height="0.91" rx="0.455" transform="translate(70.999 55.689) rotate(-6.332)"/><rect class="e" width="4.988" height="0.91" rx="0.455" transform="translate(71.126 56.834) rotate(-6.332)"/></g></g></g><g transform="translate(0 0)"><g class="f"><path class="g" d="M65.948,0A65.948,65.948,0,1,1,0,65.948,65.948,65.948,0,0,1,65.948,0Z" transform="translate(0 128.599) rotate(-77.164)"/><g transform="translate(63.258 36.223)"><g class="h" transform="translate(3.664 3.664)"><path class="e" d="M1286.817,552.927h-8.129a5.5,5.5,0,0,1-5.5-5.5V504.154a5.5,5.5,0,0,1,5.5-5.5h8.129Z" transform="translate(-1273.193 -498.658)"/><path class="e" d="M1305.322,498.658h8.358a5.5,5.5,0,0,1,5.5,5.5v43.278a5.5,5.5,0,0,1-5.5,5.5h-8.358Z" transform="translate(-1291.698 -498.658)"/><rect class="e" width="24.158" height="39.157" transform="translate(1.602 5.953)"/><path class="e" d="M1305.266,611.095a2.605,2.605,0,1,1-2.6-2.548A2.577,2.577,0,0,1,1305.266,611.095Z" transform="translate(-1288.665 -561.949)"/><path class="e" d="M1302.65,506.478a.8.8,0,0,1-.8.8H1282.5a.8.8,0,0,1-.8-.8h0a.8.8,0,0,1,.8-.8h19.349a.8.8,0,0,1,.8.8Z" transform="translate(-1278.091 -502.701)"/><rect class="e" width="17.582" height="4.459" rx="2.23" transform="translate(4.833 28.446)"/><path class="e" d="M1338.153,625.577c-6.638,1.518-12.345,8.342-15.167,12.294-1.7-2.293-4.3-5.561-5.665-5.985-1.947-.6-16.184-12.735-17.282-20.271a5.12,5.12,0,0,1,.075-2.055s.037-1.532.282-3.4a1.45,1.45,0,0,1,.021-.155c.341-2.541,1.076-5.634,2.622-6.338l-3.9-23.559a3.669,3.669,0,0,1,3.082-4.17,3.8,3.8,0,0,1,2.77.616,3.533,3.533,0,0,1,1.495,2.339l2.693,16.284a1.579,1.579,0,0,1-.018-.167,2.416,2.416,0,0,1,1.6-2.1h0a4.574,4.574,0,0,1,1.189-.367,4.063,4.063,0,0,1,2.283.242.116.116,0,0,1,.03.009,1.88,1.88,0,0,1,1.161,1.349l.617,3.73c-.194-1.172,1.045-2.349,2.777-2.635a4.06,4.06,0,0,1,2.31.253,1.887,1.887,0,0,1,1.164,1.349l.834,5.045a1.847,1.847,0,0,1-.02-.217c-.02-1.1,1.17-2.149,2.794-2.418a4.049,4.049,0,0,1,2.313.252,1.883,1.883,0,0,1,1.161,1.349l3.242,19.6C1332.863,617.923,1335.677,622.112,1338.153,625.577Z" transform="translate(-1288.111 -540.833)"/><path class="e" d="M1403.758,741.551l-27.126,2.77-7.747-6.275-17.894-24.815s.68-1.164,1.886-2.846v0c2.822-3.951,8.529-10.775,15.167-12.293a11.547,11.547,0,0,1,3.083-.3l6.706,11Z" transform="translate(-1318 -613.344)"/><path class="e" d="M1308.181,637.4c.25,1.258.425,2.514.585,3.77s.3,2.511.435,3.764l.4,3.755a25.8,25.8,0,0,0,.629,3.722,7.634,7.634,0,0,1-.835-1.741c-.1-.306-.206-.612-.289-.922s-.158-.622-.238-.933a35.094,35.094,0,0,1-.612-3.781c-.122-1.268-.211-2.539-.226-3.812A29.591,29.591,0,0,1,1308.181,637.4Z" transform="translate(-1293.253 -578.565)"/><path class="e" d="M1324.293,624.083a10.455,10.455,0,0,1-.763-1.823,17.089,17.089,0,0,1-.5-1.877,16.8,16.8,0,0,1-.3-1.921,10.335,10.335,0,0,1-.037-1.976,10.349,10.349,0,0,1,.764,1.823,16.845,16.845,0,0,1,.5,1.878,17.036,17.036,0,0,1,.3,1.921A10.456,10.456,0,0,1,1324.293,624.083Z" transform="translate(-1301.683 -566.521)"/><path class="e" d="M1338.573,622.359a3.563,3.563,0,0,1,.539.971,5.324,5.324,0,0,1,.272,1.016,5.217,5.217,0,0,1,.07,1.048.59.59,0,1,1-.739.123,5.315,5.315,0,0,1-.271-1.016,5.408,5.408,0,0,1-.069-1.049A3.576,3.576,0,0,1,1338.573,622.359Z" transform="translate(-1310.734 -569.904)"/><path class="e" d="M1355.534,632.684a4.357,4.357,0,0,1,.584.946,7.334,7.334,0,0,1,.369.967,9.824,9.824,0,0,1,.247.982c.071.338.108.655.217,1.038a1.709,1.709,0,0,1-.9-.737,3.776,3.776,0,0,1-.471-1,4.38,4.38,0,0,1-.184-1.072A3.108,3.108,0,0,1,1355.534,632.684Z" transform="translate(-1320.534 -575.851)"/><path class="e" d="M1306.586,526.076l-4.391,4.416a.459.459,0,0,1-.646,0l-7.484-7.322a.451.451,0,0,1-.007-.642l4.391-4.416a.46.46,0,0,1,.647,0l7.484,7.322A.451.451,0,0,1,1306.586,526.076Z" transform="translate(-1285.135 -509.787)"/><path class="e" d="M1301.994,530.3a.458.458,0,0,1-.54.079.447.447,0,0,1-.106-.078l-1.25-1.223-6.233-6.1a.451.451,0,0,1-.007-.641l3.016-3.033.921-.926.454-.457a.46.46,0,0,1,.647,0l1.818,1.779,5.665,5.544a.45.45,0,0,1,.007.641l-.454.456-.921.926Z" transform="translate(-1285.02 -509.675)"/><path class="e" d="M1309.283,528.065l-8.138-7.961.921-.926,8.137,7.961Z" transform="translate(-1289.292 -510.476)"/><path class="e" d="M1.072,0h9.185a1.072,1.072,0,0,1,1.072,1.072V6.079a1.073,1.073,0,0,1-1.073,1.073H1.072A1.072,1.072,0,0,1,0,6.08V1.072A1.072,1.072,0,0,1,1.072,0Z" transform="translate(6.502 15.202) rotate(-6.302)"/><path class="e" d="M1300.309,538.328a.452.452,0,0,1-.276.469.427.427,0,0,1-.126.033l-1.73.191-3.712.41-4.914.542a.455.455,0,0,1-.5-.4l-.471-4.262-.144-1.3-.07-.642a.454.454,0,0,1,.4-.5l2.516-.278,7.84-.865a.454.454,0,0,1,.5.4l.07.641.015.14.129,1.162Z" transform="translate(-1281.929 -517.699)"/><circle class="e" cx="0.369" cy="0.369" r="0.369" transform="translate(7.679 16.483)"/><circle class="e" cx="0.369" cy="0.369" r="0.369" transform="translate(9.002 16.339)"/><path class="e" d="M1313.527,544.776a.622.622,0,0,1-.869.637.622.622,0,0,0-.117-1.071.622.622,0,0,1,.986.435Z" transform="translate(-1295.856 -524.9)"/><path class="e" d="M1312.564,545.007a.359.359,0,1,1-.367-.5A.622.622,0,0,1,1312.564,545.007Z" transform="translate(-1295.511 -525.064)"/><path class="e" d="M1312.564,545.007a.359.359,0,1,1-.367-.5A.622.622,0,0,1,1312.564,545.007Z" transform="translate(-1295.511 -525.064)"/><path class="e" d="M1311.473,545.5a.622.622,0,1,1-.117-1.071.622.622,0,0,0,.117,1.071Z" transform="translate(-1294.671 -524.992)"/><path class="e" d="M.41,0H1.547a.41.41,0,0,1,.41.41v.21a.411.411,0,0,1-.411.411H.41A.41.41,0,0,1,0,.621V.41A.41.41,0,0,1,.41,0Z" transform="translate(15.041 15.611) rotate(-6.219)"/><rect class="e" width="6.454" height="0.91" rx="0.455" transform="translate(7.741 19.466) rotate(-6.332)"/><rect class="e" width="4.988" height="0.91" rx="0.455" transform="translate(7.868 20.611) rotate(-6.332)"/></g><path class="i" d="M1278.177,544.287h-8.128a5.5,5.5,0,0,1-5.5-5.5V495.514a5.5,5.5,0,0,1,5.5-5.5h8.128Z" transform="translate(-1264.553 -490.018)"/><g transform="translate(13.624)"><path class="i" d="M1296.682,490.018h8.358a5.5,5.5,0,0,1,5.5,5.5v43.278a5.5,5.5,0,0,1-5.5,5.5h-8.358Z" transform="translate(-1296.682 -490.018)"/></g><rect class="j" width="24.158" height="39.157" transform="translate(1.602 5.953)"/><path class="k" d="M1296.626,602.455a2.605,2.605,0,1,1-2.6-2.548A2.577,2.577,0,0,1,1296.626,602.455Z" transform="translate(-1280.025 -553.309)"/><path class="l" d="M1294.01,497.838a.8.8,0,0,1-.8.8h-19.349a.8.8,0,0,1-.8-.8h0a.8.8,0,0,1,.8-.8h19.349a.8.8,0,0,1,.8.8Z" transform="translate(-1269.451 -494.061)"/><g transform="translate(4.833 28.446)"><rect class="m" width="17.582" height="4.459" rx="2.23"/></g><path class="n" d="M1329.513,616.937c-6.637,1.518-12.345,8.342-15.167,12.294-1.7-2.293-4.3-5.561-5.665-5.985-1.947-.6-16.184-12.735-17.282-20.271a5.114,5.114,0,0,1,.075-2.055s.037-1.532.282-3.4a1.39,1.39,0,0,1,.021-.155c.341-2.541,1.076-5.634,2.622-6.338l-3.9-23.559a3.669,3.669,0,0,1,3.082-4.17,3.8,3.8,0,0,1,2.769.616,3.534,3.534,0,0,1,1.495,2.339l2.693,16.284a1.522,1.522,0,0,1-.018-.167,2.416,2.416,0,0,1,1.6-2.1h0a4.57,4.57,0,0,1,1.189-.367,4.062,4.062,0,0,1,2.283.242.116.116,0,0,1,.03.009,1.88,1.88,0,0,1,1.161,1.349l.617,3.73c-.194-1.172,1.045-2.349,2.777-2.635a4.06,4.06,0,0,1,2.31.253,1.887,1.887,0,0,1,1.164,1.349l.834,5.045a1.822,1.822,0,0,1-.02-.217c-.02-1.1,1.17-2.149,2.794-2.418a4.049,4.049,0,0,1,2.313.252,1.882,1.882,0,0,1,1.161,1.349l3.242,19.6C1324.223,609.283,1327.037,613.472,1329.513,616.937Z" transform="translate(-1279.471 -532.193)"/><g transform="translate(32.99 84.438)"><path class="i" d="M1395.118,732.911l-27.127,2.77-7.747-6.276-17.894-24.815s.68-1.164,1.886-2.846v0c2.822-3.951,8.529-10.775,15.167-12.294a11.545,11.545,0,0,1,3.083-.3l6.706,11Z" transform="translate(-1342.35 -689.141)"/></g><g transform="translate(14.769 58.832)"><path class="o" d="M1299.541,628.757c.25,1.258.425,2.514.585,3.77s.3,2.511.435,3.764l.4,3.755a25.812,25.812,0,0,0,.629,3.722,7.631,7.631,0,0,1-.835-1.741c-.1-.306-.206-.612-.289-.921s-.158-.622-.238-.933a35.131,35.131,0,0,1-.612-3.781c-.122-1.268-.211-2.539-.226-3.812A29.635,29.635,0,0,1,1299.541,628.757Z" transform="translate(-1299.383 -628.757)"/></g><g transform="translate(20.976 49.965)"><path class="o" d="M1315.653,615.443a10.462,10.462,0,0,1-.763-1.823,17.089,17.089,0,0,1-.5-1.877,16.751,16.751,0,0,1-.3-1.921,10.315,10.315,0,0,1-.037-1.976,10.351,10.351,0,0,1,.764,1.823,16.822,16.822,0,0,1,.5,1.878,17.009,17.009,0,0,1,.3,1.921A10.456,10.456,0,0,1,1315.653,615.443Z" transform="translate(-1314.019 -607.846)"/></g><g transform="translate(27.639 52.455)"><path class="o" d="M1329.934,613.719a3.57,3.57,0,0,1,.539.971,5.336,5.336,0,0,1,.272,1.016,5.27,5.27,0,0,1,.07,1.048.59.59,0,1,1-.739.123,5.288,5.288,0,0,1-.271-1.016,5.389,5.389,0,0,1-.069-1.049A3.57,3.57,0,0,1,1329.934,613.719Z" transform="translate(-1329.733 -613.719)"/></g><g transform="translate(34.855 56.833)"><path class="o" d="M1346.894,624.044a4.356,4.356,0,0,1,.584.946,7.338,7.338,0,0,1,.369.967,9.863,9.863,0,0,1,.247.982c.071.338.108.655.217,1.038a1.71,1.71,0,0,1-.9-.737,3.767,3.767,0,0,1-.471-1,4.369,4.369,0,0,1-.184-1.072A3.107,3.107,0,0,1,1346.894,624.044Z" transform="translate(-1346.75 -624.044)"/></g><g transform="translate(8.707 8.111)"><path class="p" d="M1297.946,517.436l-4.391,4.416a.46.46,0,0,1-.646,0l-7.484-7.322a.451.451,0,0,1-.007-.642l4.391-4.416a.46.46,0,0,1,.647,0l7.484,7.322A.451.451,0,0,1,1297.946,517.436Z" transform="translate(-1285.202 -509.259)"/><path class="q" d="M1293.354,521.657a.458.458,0,0,1-.54.079.443.443,0,0,1-.106-.078l-1.25-1.223-6.233-6.1a.451.451,0,0,1-.007-.641l3.016-3.033.921-.926.454-.457a.46.46,0,0,1,.647,0l1.818,1.778,5.665,5.544a.45.45,0,0,1,.007.641l-.454.456-.921.926Z" transform="translate(-1285.087 -509.146)"/><path class="r" d="M1300.643,519.425l-8.137-7.961.921-.926,8.137,7.961Z" transform="translate(-1289.36 -509.948)"/></g><g transform="translate(6.432 13.958)"><g transform="translate(0 0)"><path class="p" d="M1.072,0h9.185a1.072,1.072,0,0,1,1.072,1.072V6.08a1.072,1.072,0,0,1-1.072,1.072H1.073A1.073,1.073,0,0,1,0,6.079V1.072A1.072,1.072,0,0,1,1.072,0Z" transform="translate(0.07 1.244) rotate(-6.302)"/><g transform="translate(0 0.06)"><path class="s" d="M1291.669,529.688a.452.452,0,0,1-.276.469.426.426,0,0,1-.126.033l-1.73.191-3.712.41-4.914.542a.455.455,0,0,1-.5-.4l-.471-4.262-.144-1.3-.071-.642a.454.454,0,0,1,.4-.5l2.516-.278,7.84-.865a.454.454,0,0,1,.5.4l.07.641.015.14.129,1.162Z" transform="translate(-1279.721 -523.077)"/></g></g><circle class="j" cx="0.369" cy="0.369" r="0.369" transform="translate(1.247 2.525)"/><circle class="j" cx="0.369" cy="0.369" r="0.369" transform="translate(2.57 2.381)"/><g transform="translate(9.381 5.363)"><path class="j" d="M1304.887,536.136a.622.622,0,0,1-.551.686.615.615,0,0,1-.318-.049.622.622,0,0,0-.117-1.071.621.621,0,0,1,.985.435Z" transform="translate(-1303.029 -535.581)"/><path class="t" d="M1303.924,536.367a.359.359,0,1,1-.367-.5A.622.622,0,0,1,1303.924,536.367Z" transform="translate(-1302.684 -535.745)"/><g transform="translate(0.618 0.12)"><path class="s" d="M1303.924,536.367a.359.359,0,1,1-.367-.5A.622.622,0,0,1,1303.924,536.367Z" transform="translate(-1303.302 -535.865)"/></g><g transform="translate(0 0.067)"><path class="s" d="M1302.833,536.864a.622.622,0,1,1-.117-1.071.622.622,0,0,0,.117,1.071Z" transform="translate(-1301.844 -535.74)"/></g></g><path class="u" d="M.41,0H1.546a.411.411,0,0,1,.411.411V.619a.411.411,0,0,1-.411.411H.41A.41.41,0,0,1,0,.621V.41A.41.41,0,0,1,.41,0Z" transform="translate(8.609 1.653) rotate(-6.219)"/><rect class="j" width="6.454" height="0.91" rx="0.455" transform="translate(1.309 5.508) rotate(-6.332)"/><rect class="j" width="4.988" height="0.91" rx="0.455" transform="translate(1.436 6.652) rotate(-6.332)"/></g></g></g></g></svg>